{"glyphs":{"0":{"ha":1140,"x_min":0,"x_max":1021,"o":"m 1021 1175 l 1021 0 q 768 -148 894 -75 q 513 -296 642 -221 q 288 -165 400 -229 q 63 -37 175 -100 l 0 0 q 1 426 0 214 q 0 850 3 639 l 0 1133 l 0 1175 q 13 1188 3 1182 q 33 1196 24 1193 q 146 1260 90 1228 q 254 1321 201 1293 l 504 1471 q 525 1467 514 1474 q 546 1454 536 1461 q 783 1315 663 1385 q 1021 1175 904 1244 m 329 1196 q 264 1156 297 1176 q 196 1117 231 1136 q 186 1112 193 1115 q 172 1104 179 1108 q 158 1095 164 1100 q 150 1088 151 1090 q 149 1059 147 1078 q 150 1025 150 1040 l 150 88 q 331 -17 242 35 q 513 -121 421 -68 q 671 -31 592 -76 q 825 63 750 15 q 835 67 828 64 q 849 73 842 69 q 863 81 857 76 q 871 88 869 85 q 872 117 874 97 q 871 150 871 138 l 871 1092 q 694 1196 783 1144 q 513 1300 604 1247 q 422 1247 465 1272 q 329 1196 379 1221 z "},"1":{"ha":842,"x_min":0,"x_max":658,"o":"m 504 1257 q 327 1155 417 1207 q 146 1053 238 1103 q 73 1095 111 1075 q 0 1140 35 1115 q 251 1285 126 1213 q 504 1432 375 1357 l 504 1257 m 508 1432 l 658 1344 l 658 -247 l 508 -335 q 507 338 506 4 q 508 1007 508 671 l 508 1432 z "},"2":{"ha":1140,"x_min":0,"x_max":1021,"o":"m 508 1471 q 766 1324 640 1399 q 1021 1175 892 1250 l 1021 592 q 1010 596 1014 592 q 1004 600 1007 600 q 936 638 969 619 q 871 679 903 657 l 871 1088 q 692 1196 783 1144 q 513 1300 600 1247 q 345 1202 431 1253 q 175 1104 260 1151 q 165 1097 172 1101 q 154 1092 157 1092 q 146 1094 151 1092 q 134 1101 140 1097 q 123 1108 128 1104 q 117 1113 118 1111 q 60 1146 89 1128 q 4 1179 32 1164 q 256 1326 131 1254 q 508 1471 382 1399 m 513 883 q 765 735 639 808 q 1017 588 890 663 q 942 544 979 565 q 871 500 906 522 q 690 604 779 553 q 513 708 600 656 q 331 604 421 656 q 150 500 242 553 l 150 138 q 149 113 150 128 q 150 88 147 97 q 158 81 151 85 q 172 73 164 76 q 186 65 179 69 q 196 58 193 61 q 354 -31 275 14 q 513 -121 433 -76 q 691 -17 597 -71 q 867 83 785 36 q 942 42 904 64 q 1017 0 979 19 q 765 -148 890 -75 q 513 -296 639 -221 q 256 -149 383 -224 q 0 0 129 -75 l 0 588 q 256 735 129 663 q 513 883 383 808 z "},"3":{"ha":1140,"x_min":0,"x_max":1017,"o":"m 504 1471 q 762 1324 636 1399 q 1017 1175 888 1250 l 1017 592 q 1000 600 1008 592 q 932 638 965 619 q 867 675 899 656 l 867 1088 q 685 1193 775 1140 q 508 1296 596 1246 q 327 1194 417 1246 q 150 1092 238 1142 q 75 1132 113 1111 q 0 1175 38 1153 q 63 1214 32 1197 q 125 1250 93 1231 l 250 1325 q 377 1397 313 1360 q 504 1471 442 1433 m 867 83 l 867 500 q 685 603 775 553 q 508 704 596 654 q 327 603 417 654 q 150 500 238 553 q 74 544 113 522 q 0 588 35 565 q 252 733 126 660 q 504 879 378 807 q 762 733 636 807 q 1017 588 888 660 l 1017 0 q 763 -149 888 -75 q 508 -296 638 -224 q 253 -149 379 -224 q 0 0 126 -75 q 75 40 38 19 q 150 83 113 61 q 327 -19 238 33 q 504 -125 417 -72 q 687 -21 599 -72 q 867 83 775 31 z "},"4":{"ha":842,"x_min":0,"x_max":663,"o":"m 513 1438 l 533 1438 q 598 1400 565 1418 q 663 1363 631 1382 l 663 -225 q 588 -270 625 -247 q 513 -312 550 -293 q 513 449 515 71 q 513 1213 510 826 l 513 1438 m 354 1188 q 253 1131 304 1160 q 150 1071 203 1103 l 150 683 l 150 658 q 158 651 151 656 q 172 644 164 647 q 186 636 179 640 q 196 629 193 632 q 354 540 275 585 q 508 450 433 494 l 508 279 q 254 424 379 351 q 0 571 129 496 l 0 1158 q 177 1259 88 1208 q 354 1363 267 1310 q 356 1277 357 1322 q 354 1188 354 1232 z "},"5":{"ha":1140,"x_min":-4,"x_max":1017,"o":"m 504 1471 q 758 1325 633 1399 q 1013 1179 883 1251 q 939 1135 978 1157 q 863 1092 900 1114 q 685 1196 775 1144 q 508 1300 596 1247 q 327 1196 417 1247 q 146 1092 238 1144 l 146 679 q 72 635 111 657 q -4 592 33 614 l -4 1179 q 250 1325 125 1251 q 504 1471 375 1399 m 1017 588 l 1017 0 q 760 -147 888 -75 q 504 -292 633 -219 q 252 -147 378 -219 q 0 0 126 -75 q 74 42 35 19 q 150 83 113 64 q 327 -17 238 33 q 504 -121 417 -68 q 685 -17 596 -68 q 867 88 775 35 l 867 500 q 685 604 775 553 q 504 708 596 656 q 325 605 413 656 q 150 504 238 554 q 74 547 113 526 q 0 592 35 567 q 254 738 129 664 q 508 883 379 811 q 763 735 638 808 q 1017 588 888 663 z "},"6":{"ha":1140,"x_min":0,"x_max":1021,"o":"m 508 1471 q 765 1325 638 1399 q 1021 1179 892 1251 q 944 1135 983 1157 q 867 1092 904 1114 q 690 1194 779 1142 q 513 1296 600 1246 q 331 1193 421 1246 q 150 1088 242 1140 l 150 675 q 76 633 115 653 q 0 592 38 614 l 0 1175 l 125 1250 q 191 1288 160 1269 q 254 1325 222 1306 q 381 1397 317 1360 q 508 1471 446 1433 m 1021 588 l 1021 0 q 767 -149 892 -75 q 513 -296 642 -224 q 256 -149 383 -224 q 0 0 129 -75 q 1 285 0 142 q 0 567 3 428 l 0 583 q 15 596 3 590 q 33 604 26 601 q 207 704 118 654 q 383 804 296 754 q 448 844 415 824 q 513 879 481 864 q 767 733 642 807 q 1021 588 892 660 m 171 513 q 160 506 168 510 q 150 500 153 503 l 150 475 q 151 283 153 378 q 150 83 150 188 q 331 -19 242 33 q 513 -125 421 -72 q 690 -21 600 -72 q 871 88 779 31 l 871 500 q 690 604 779 553 q 513 708 600 656 q 342 610 428 661 q 171 513 256 560 z "},"7":{"ha":835,"x_min":47,"x_max":708,"o":"m 551 1450 l 551 1279 q 463 1225 507 1251 q 372 1171 419 1199 q 284 1121 328 1146 q 193 1071 240 1096 q 120 1113 158 1093 q 47 1158 82 1133 q 298 1303 174 1231 q 551 1450 422 1375 m 556 1450 l 706 1363 l 706 1163 l 706 929 l 706 154 l 706 -183 q 707 -206 706 -193 q 706 -229 708 -219 q 690 -242 703 -236 q 668 -250 678 -247 q 610 -283 640 -265 q 556 -317 581 -301 l 556 33 l 556 279 q 554 396 553 342 q 556 513 556 450 l 556 1446 l 556 1450 m 551 858 l 551 729 q 553 707 551 719 q 551 688 554 694 q 533 671 549 681 q 510 658 517 661 q 350 569 431 614 q 197 479 269 524 l 47 567 q 108 604 75 586 q 172 638 140 622 q 297 712 235 675 q 422 783 360 749 q 487 821 454 803 q 551 858 519 839 z "},"8":{"ha":1146,"x_min":-3,"x_max":1019,"o":"m 508 1471 q 764 1325 638 1399 q 1017 1179 890 1251 l 1017 592 q 943 634 982 611 q 867 679 904 657 l 867 1092 q 690 1196 779 1144 q 508 1300 600 1247 q 329 1196 417 1247 q 150 1092 242 1144 l 150 679 l 0 592 q -1 886 -3 736 q 0 1175 0 1036 q 60 1214 28 1197 q 125 1250 93 1231 q 252 1324 188 1288 q 379 1396 317 1361 q 442 1433 411 1415 q 508 1471 474 1451 m 508 883 q 748 746 628 814 q 988 608 868 678 q 1006 596 994 601 q 1017 588 1017 590 q 1018 571 1019 585 q 1017 550 1017 557 l 1017 0 q 764 -147 890 -75 q 508 -292 638 -219 q 253 -146 379 -219 q 0 0 126 -72 l 0 588 q 254 735 129 663 q 508 883 379 808 m 842 517 q 826 526 832 519 q 813 533 819 533 l 808 533 q 792 542 799 536 q 779 550 786 547 q 746 567 763 561 q 748 569 746 569 q 750 571 750 568 q 631 640 690 606 q 508 708 571 674 q 388 639 449 674 q 267 567 326 604 q 268 568 267 568 q 271 567 271 568 l 246 554 l 246 558 q 198 530 221 543 q 150 504 175 517 l 150 88 q 198 59 175 72 q 246 33 221 46 l 246 38 q 254 29 249 31 q 263 25 260 28 l 258 25 q 383 -48 321 -10 q 508 -121 446 -86 q 635 -48 571 -83 q 763 25 700 -12 l 754 25 q 783 42 769 35 q 813 58 797 49 q 811 55 813 56 q 813 54 810 54 q 840 71 825 64 q 867 88 854 78 l 867 504 l 842 517 z "},"9":{"ha":1146,"x_min":-4,"x_max":1017,"o":"m 1017 588 l 1017 4 q 953 -35 985 -18 q 888 -71 922 -51 q 699 -179 793 -124 q 508 -292 606 -235 q 254 -146 379 -219 q 0 0 129 -72 q 74 45 35 25 q 150 88 113 65 q 327 -15 238 38 q 504 -121 417 -68 q 687 -15 599 -68 q 867 88 775 38 l 867 504 q 688 608 779 557 q 508 713 596 660 q 327 608 417 660 q 150 504 238 557 q 74 548 113 526 q 0 592 35 569 q 256 739 129 664 q 508 883 382 814 q 763 737 638 811 q 1017 588 888 663 m 504 1475 q 762 1327 636 1400 q 1017 1179 888 1254 l 1017 596 q 1006 599 1010 596 q 1000 604 1003 601 q 932 642 965 624 q 867 679 899 660 l 867 1042 q 868 1068 867 1054 q 867 1092 869 1082 q 859 1099 865 1094 q 845 1108 853 1104 q 831 1116 838 1113 q 821 1121 824 1119 q 665 1210 742 1165 q 508 1300 588 1256 q 327 1197 417 1250 q 146 1092 238 1144 l 146 683 q 73 638 111 658 q 0 596 35 618 q -2 736 -1 664 q -3 879 -3 808 q -4 1017 -4 950 q -4 1146 -4 1085 l -4 1179 q 9 1188 -1 1182 q 29 1200 19 1193 q 268 1338 149 1269 q 504 1475 388 1406 z "}," ":{"ha":738,"x_min":0,"x_max":0,"o":""},"a":{"ha":1110,"x_min":0,"x_max":1021,"o":"m 508 883 q 765 735 638 808 q 1021 588 892 663 q 1021 4 1014 299 q 1010 7 1014 4 q 1000 13 1007 10 q 935 50 968 32 q 867 88 901 68 l 867 450 q 868 475 867 460 q 867 500 869 490 q 861 507 867 503 q 849 515 856 511 q 835 521 842 518 q 825 525 828 524 q 667 617 746 572 q 508 708 588 661 q 331 606 421 658 q 150 500 242 553 l 150 88 q 316 -10 232 38 q 488 -108 400 -58 q 498 -116 490 -111 q 508 -121 506 -121 q 519 -116 511 -121 q 533 -108 526 -111 q 624 -55 581 -81 q 713 -4 668 -29 q 789 -47 750 -24 q 863 -92 828 -69 q 685 -194 775 -142 q 508 -296 596 -246 q 253 -148 379 -221 q 0 0 126 -75 l 0 588 q 253 734 126 660 q 508 883 379 808 m 1021 0 q 1021 -175 1014 -90 q 867 -90 942 -135 q 717 0 792 -44 q 792 42 754 22 q 867 83 829 61 q 942 42 904 64 q 1021 0 981 19 z "},"b":{"ha":1158,"x_min":0,"x_max":1021,"o":"m 150 1088 l 150 675 q 333 777 244 725 q 508 879 421 829 q 702 773 606 826 q 896 663 799 719 l 1021 588 l 1021 0 q 958 -37 989 -19 q 892 -75 926 -56 q 702 -183 797 -128 q 513 -296 607 -239 q 256 -148 383 -221 q 0 0 129 -75 l 0 604 q 1 894 0 749 q 0 1171 3 1039 l 0 1175 q 150 1088 81 1131 m 513 708 q 331 606 421 658 q 150 500 242 553 l 150 88 q 331 -17 242 35 q 508 -121 421 -68 q 690 -18 600 -71 q 871 88 779 35 l 871 500 q 692 604 779 553 q 513 708 604 656 z "},"c":{"ha":1140,"x_min":0,"x_max":1017,"o":"m 508 883 q 764 738 638 811 q 1017 592 890 664 q 943 547 979 567 q 867 504 907 526 q 690 606 779 554 q 513 708 600 658 q 331 606 421 658 q 150 500 242 553 l 150 88 q 196 63 172 75 q 242 38 219 50 q 375 -42 308 0 q 508 -121 442 -83 q 690 -17 600 -68 q 867 88 779 35 l 1017 0 q 765 -148 890 -75 q 513 -296 639 -221 q 255 -148 381 -221 q 0 0 129 -75 l 0 313 l 0 588 q 254 735 126 663 q 508 883 382 808 z "},"d":{"ha":1140,"x_min":0,"x_max":1021,"o":"m 871 1069 q 1021 1157 939 1113 l 1021 1153 q 1019 876 1018 1021 q 1021 586 1021 731 l 1021 -18 q 765 -166 892 -93 q 508 -314 638 -239 q 319 -201 414 -257 q 129 -93 224 -146 q 63 -56 94 -74 q 0 -18 32 -37 l 0 569 l 125 644 q 319 755 222 701 q 513 861 415 808 q 688 759 600 811 q 871 657 776 707 l 871 1069 m 508 690 q 329 586 417 638 q 150 482 242 535 l 150 69 q 331 -36 242 17 q 513 -139 421 -89 q 690 -35 600 -86 q 871 69 779 17 l 871 482 q 690 588 779 535 q 508 690 600 640 z "},"e":{"ha":1140,"x_min":0,"x_max":1017,"o":"m 1017 592 q 764 444 890 517 q 508 296 638 371 q 437 340 474 318 q 363 383 400 361 q 540 488 450 436 q 717 592 629 539 q 615 652 667 624 q 513 708 563 681 q 331 606 421 658 q 150 500 242 553 l 150 88 q 331 -17 242 35 q 508 -121 421 -68 q 688 -17 600 -68 q 867 88 775 35 l 1017 0 q 764 -147 890 -75 q 508 -292 638 -219 q 256 -146 382 -219 q 0 0 129 -72 l 0 588 q 219 715 107 650 q 442 842 332 779 q 473 862 457 851 q 504 879 489 872 q 524 876 514 882 q 550 863 535 869 q 785 726 667 793 q 1017 592 904 658 z "},"f":{"ha":640,"x_min":-4,"x_max":504,"o":"m 504 542 l 504 371 q 500 370 501 368 q 496 375 499 372 q 323 473 411 422 q 150 571 235 524 l 150 -800 l 150 -842 q 131 -856 147 -849 q 113 -867 115 -864 q 54 -899 85 -882 q -4 -929 24 -917 q -3 -256 -4 -590 q 0 408 -3 78 q -2 624 0 515 q -4 829 -4 732 q 0 833 -4 833 q 252 688 126 761 q 504 542 378 614 m 150 333 q 329 230 242 281 q 504 129 417 179 l 504 -46 q 329 56 417 4 q 150 158 242 108 l 150 333 z "},"g":{"ha":1140,"x_min":-4,"x_max":1019,"o":"m 504 865 q 762 719 636 793 q 1017 574 888 646 l 1017 24 q 1018 3 1017 14 q 1017 -14 1019 -7 q 998 -28 1014 -21 q 975 -43 982 -36 q 819 -133 896 -87 q 663 -222 742 -178 l 663 -51 q 765 10 713 -17 q 867 69 817 38 l 867 457 l 867 482 q 859 490 865 485 q 845 499 853 494 q 831 506 838 503 q 821 511 824 510 q 665 603 742 558 q 508 694 588 647 q 327 589 417 642 q 150 486 238 536 q 150 99 143 299 q 149 84 150 92 q 150 74 147 76 q 156 66 150 71 q 168 57 161 61 q 182 49 175 53 q 192 44 189 46 q 350 -47 271 -3 q 504 -139 429 -92 q 506 -222 507 -179 q 504 -306 504 -265 q 492 -301 500 -310 q 244 -158 369 -229 q 0 -18 119 -87 q -2 130 -1 54 q -3 282 -3 206 q -3 431 -3 358 q -4 569 -3 504 q 251 719 125 649 q 504 865 378 790 m 658 365 l 658 361 q 660 175 658 264 q 658 -1 661 86 l 658 -218 l 658 -401 q 404 -547 529 -474 q 150 -693 279 -621 l 150 -522 q 329 -417 238 -469 q 508 -314 421 -364 l 508 274 q 583 319 546 299 q 658 365 621 340 m 663 365 l 663 190 q 585 143 625 165 q 508 99 546 121 q 429 143 468 121 q 350 190 390 165 l 350 365 q 429 413 388 390 q 508 457 471 435 q 585 413 546 435 q 663 365 625 390 m 504 453 q 431 409 469 431 q 358 365 393 388 l 508 278 q 582 323 546 303 q 658 365 618 343 q 583 409 621 388 q 504 453 544 431 m 354 190 q 421 153 386 171 q 488 115 456 135 q 496 108 490 113 q 504 107 501 104 l 504 274 q 431 319 469 299 q 354 365 392 340 l 354 190 m 508 274 l 508 103 q 585 148 543 125 q 658 190 626 171 l 658 365 q 583 319 621 340 q 508 274 546 299 z "},"h":{"ha":1140,"x_min":0,"x_max":1021,"o":"m 150 1088 l 150 675 q 174 685 163 678 q 196 700 186 693 q 354 790 275 744 q 508 879 433 835 q 765 733 638 807 q 1021 588 892 660 l 1021 0 q 1010 4 1014 0 q 1004 8 1007 8 q 936 47 969 28 q 871 88 903 65 l 871 446 q 872 474 871 458 q 871 496 874 489 q 851 512 868 506 q 825 525 835 518 q 669 615 746 569 q 513 708 592 661 q 331 604 421 656 q 150 500 242 553 l 150 88 q 76 44 115 65 q 0 0 38 22 l 0 604 l 0 1171 l 0 1175 l 150 1088 z "},"i":{"ha":281,"x_min":0,"x_max":149,"o":"m 7 585 q 78 541 43 563 q 149 497 113 519 q 147 376 147 426 q 146 281 146 325 q 147 191 146 236 q 149 86 147 146 q 77 43 113 65 q 0 0 42 21 q 1 55 0 22 q 2 123 1 88 q 3 192 3 158 q 0 249 3 225 q 3 433 0 346 q 0 582 6 521 q 6 583 4 582 q 7 585 7 583 z "},"j":{"ha":597,"x_min":-7,"x_max":501,"o":"m 501 0 q 247 -147 372 -75 q -7 -292 122 -219 l -7 -121 q 174 -17 85 -68 q 351 88 264 35 l 351 796 q 426 839 389 818 q 501 879 464 860 l 501 0 z "},"k":{"ha":842,"x_min":-15,"x_max":650,"o":"m -15 879 q 63 833 25 857 q 135 788 100 810 q 136 719 136 751 q 136 652 136 686 q 137 582 136 618 q 139 504 138 546 q 138 285 139 397 q 139 50 136 172 l 139 25 q 138 13 139 22 q 135 0 138 3 q 122 -12 135 -7 q 101 -25 108 -18 q 43 -56 69 -40 q -15 -87 17 -72 q -15 166 -15 39 q -14 416 -14 293 q -14 655 -14 539 q -15 875 -14 771 l -15 879 m 647 879 q 649 794 650 839 q 647 708 647 749 q 470 604 560 656 q 289 500 381 553 l 289 138 q 288 110 289 125 q 289 88 286 94 q 297 80 290 85 q 310 71 303 75 q 325 63 318 67 q 335 58 332 60 q 493 -31 414 14 q 647 -121 572 -76 l 647 -296 q 393 -149 518 -224 q 139 0 268 -75 l 139 583 q 201 622 171 606 q 264 658 232 639 q 456 771 361 715 q 647 879 550 826 z "},"l":{"ha":317,"x_min":0,"x_max":150,"o":"m 0 1744 q 75 1702 38 1722 q 150 1657 113 1682 l 150 69 l 0 -18 l 0 1640 l 0 1744 z "},"m":{"ha":1836,"x_min":0,"x_max":1738,"o":"m 508 861 q 690 758 600 811 q 867 653 779 706 q 1048 756 958 703 q 1225 861 1138 808 q 1481 713 1354 786 q 1738 565 1608 640 l 1738 236 l 1738 -22 l 1588 65 l 1588 290 l 1588 478 q 1498 531 1543 506 q 1408 582 1453 557 q 1317 634 1361 607 q 1229 686 1274 661 q 1048 583 1138 633 q 867 482 958 532 q 690 583 779 532 q 513 686 600 633 q 331 582 421 633 q 154 478 242 531 l 154 65 q 77 22 117 43 q 0 -18 38 1 l 0 857 q 78 816 40 838 q 154 769 117 794 l 154 653 q 333 756 246 703 q 508 861 421 808 z "},"n":{"ha":1140,"x_min":0,"x_max":1021,"o":"m 508 865 q 766 717 640 790 q 1021 569 892 644 l 1021 -18 l 871 69 l 871 482 q 825 509 849 497 q 779 536 801 521 q 646 613 713 574 q 513 690 579 653 q 331 588 421 640 q 150 482 242 535 l 150 124 q 151 95 150 111 q 150 69 153 79 q 135 59 150 67 q 113 49 119 51 q 56 13 85 29 q 0 -18 28 -3 l 0 432 l 0 861 q 75 821 38 842 q 150 778 113 800 l 150 657 q 333 760 244 707 q 508 865 421 813 z "},"o":{"ha":1140,"x_min":0,"x_max":1021,"o":"m 508 861 q 766 715 640 789 q 1021 565 892 640 q 1019 283 1018 424 q 1021 -1 1021 143 l 1021 -18 q 1008 -31 1018 -25 q 988 -39 997 -36 q 751 -176 871 -108 q 513 -314 632 -244 q 256 -167 383 -242 q 0 -18 129 -93 q 1 267 3 133 q 0 532 0 400 l 0 565 q 15 576 3 568 q 33 586 26 583 q 144 649 90 618 q 254 711 197 679 q 383 788 321 751 q 508 861 446 824 m 150 478 l 150 65 q 331 -39 242 13 q 508 -143 421 -90 q 668 -51 590 -96 q 825 40 746 -7 q 835 45 828 42 q 849 53 842 49 q 863 62 857 57 q 871 69 869 67 q 872 92 874 76 q 871 119 871 107 l 871 478 q 692 583 783 531 q 513 686 600 636 q 331 583 421 636 q 150 478 242 531 m 667 361 q 665 274 667 317 q 667 186 664 231 q 590 139 629 161 q 513 94 550 117 q 434 138 472 117 q 358 182 396 160 q 356 273 356 232 q 358 361 356 314 q 434 407 393 383 q 513 453 475 431 q 590 408 550 431 q 667 361 629 386 m 508 449 q 437 405 474 426 q 363 361 400 383 q 436 317 397 339 q 513 274 475 296 q 585 317 547 296 q 658 361 624 339 q 585 405 621 383 q 508 449 549 426 m 358 186 q 426 147 393 167 q 492 111 460 126 q 502 103 499 108 q 508 99 506 99 l 508 269 q 435 315 474 294 q 358 361 396 336 l 358 186 m 513 269 l 513 99 q 589 142 550 121 q 663 186 628 164 q 664 274 663 231 q 663 361 665 317 q 588 315 625 336 q 513 269 550 294 z "},"p":{"ha":667,"x_min":-6,"x_max":506,"o":"m 501 588 q 426 546 464 565 q 351 504 389 526 q 251 563 301 532 q 147 621 200 593 l 147 -750 l 147 -796 q 131 -806 144 -799 q 110 -817 117 -814 q 52 -850 82 -832 q -3 -883 22 -868 q -3 -519 -3 -690 q -4 -188 -4 -349 q -4 130 -4 -28 q -3 454 -4 288 l -3 879 q -6 881 -6 879 q -3 883 -6 883 q 185 773 92 826 q 376 663 279 719 q 439 626 408 643 q 501 588 469 610 m 506 0 q 326 -102 414 -50 q 147 -204 239 -154 l 147 -75 l 147 -33 q 160 -23 150 -26 q 172 -17 169 -19 q 265 35 219 8 q 351 88 311 63 l 351 500 q 426 545 389 525 q 501 588 464 565 q 503 294 504 436 q 506 0 503 151 z "},"q":{"ha":1140,"x_min":0,"x_max":1021,"o":"m 508 883 q 766 735 640 808 q 1021 588 892 663 l 1021 0 q 1017 -4 1021 -4 l 1013 -4 q 838 -106 925 -54 q 667 -204 751 -157 l 667 -33 q 767 27 717 -1 q 871 88 818 56 l 871 475 l 871 500 q 851 515 868 507 q 825 525 835 522 q 667 618 746 572 q 513 708 588 664 q 331 604 421 656 q 150 500 242 553 l 150 113 l 150 88 q 158 81 151 85 q 172 73 164 76 q 186 67 179 69 q 196 63 193 64 q 352 -31 275 15 q 508 -121 429 -76 l 508 -292 q 383 -220 446 -257 q 254 -146 321 -183 q 127 -74 192 -111 q 0 0 63 -37 l 0 588 l 125 663 q 318 771 222 715 q 508 883 414 826 m 513 -296 l 513 113 q 663 200 588 163 l 663 -383 l 513 -296 m 667 383 l 667 204 q 588 160 626 182 q 513 117 550 139 q 433 160 472 139 q 354 204 394 182 l 354 383 q 435 429 394 406 q 513 475 475 453 q 590 429 550 453 q 667 383 629 406 m 513 471 l 363 383 l 513 296 q 588 341 550 321 q 663 383 625 361 q 586 427 622 406 q 513 471 550 449 m 358 208 l 508 121 l 508 292 q 433 337 471 317 q 358 379 396 357 l 358 208 m 625 188 q 647 196 635 190 q 663 208 660 201 q 664 229 665 215 q 663 250 663 243 l 663 379 q 586 335 625 357 q 513 292 547 314 l 513 121 q 569 152 540 136 q 625 188 597 168 m 513 121 l 513 292 q 586 335 547 314 q 663 379 625 357 l 663 250 q 664 229 663 243 q 663 208 665 215 q 647 196 660 201 q 625 188 635 190 q 569 152 597 168 q 513 121 540 136 z "},"r":{"ha":567,"x_min":0,"x_max":508,"o":"m 150 1069 l 150 657 q 174 667 163 660 q 196 682 186 675 q 354 772 275 726 q 508 861 433 817 l 508 690 q 331 584 421 633 q 150 482 242 535 l 150 69 q 76 26 115 47 q 0 -18 38 4 l 0 1153 l 0 1157 q 76 1113 38 1135 q 150 1069 115 1092 z "},"s":{"ha":1114,"x_min":-4,"x_max":1013,"o":"m 508 865 q 698 757 603 813 q 888 644 793 701 q 952 608 919 625 q 1013 569 985 592 q 938 529 975 550 q 867 486 901 508 q 685 588 775 536 q 508 690 596 640 q 328 588 417 640 q 146 486 240 536 q 173 468 158 476 q 200 453 188 460 q 390 342 294 396 q 579 232 485 289 q 742 140 661 185 q 908 44 824 94 q 960 13 933 29 q 1013 -18 988 -3 q 760 -164 886 -90 q 508 -310 635 -237 q 254 -164 379 -237 q 0 -18 129 -90 q 74 27 35 7 q 150 69 113 47 q 327 -35 238 17 q 508 -139 417 -86 q 610 -78 558 -107 q 713 -18 663 -50 q 669 9 690 -3 q 625 36 647 21 q 310 216 468 128 q -4 399 153 304 q -3 486 -4 443 q -4 569 -1 529 q 252 719 125 644 q 508 865 379 793 z "},"t":{"ha":1103,"x_min":0,"x_max":1013,"o":"m 508 1435 q 513 1439 508 1439 q 584 1394 547 1414 q 658 1351 621 1374 q 660 1111 661 1229 q 658 876 658 993 l 658 385 l 658 -244 q 583 -286 621 -264 q 508 -328 546 -308 l 508 -61 l 508 414 l 508 1435 m 150 468 q 74 512 113 490 q 0 556 35 533 q 251 701 126 628 q 504 847 375 775 q 506 760 507 803 q 504 676 504 717 q 460 648 482 661 q 417 622 439 635 q 283 547 350 585 q 150 468 217 508 m 663 760 q 838 658 750 710 q 1013 556 925 606 q 940 512 978 533 q 867 468 901 490 q 763 526 814 496 q 663 585 713 557 l 663 760 z "},"u":{"ha":1140,"x_min":0,"x_max":1021,"o":"m 150 496 l 150 138 q 149 111 150 125 q 150 88 147 97 q 158 80 151 85 q 172 71 164 75 q 186 63 179 67 q 196 58 193 60 q 354 -31 275 14 q 513 -121 433 -76 q 692 -17 604 -68 q 871 88 779 35 l 871 446 q 869 474 871 458 q 871 496 868 489 q 886 508 874 503 q 908 521 899 514 l 1021 583 l 1021 38 l 1021 0 q 1008 -8 1018 -3 q 992 -21 999 -14 q 767 -149 875 -87 q 542 -279 658 -210 q 525 -289 535 -282 q 513 -296 515 -296 q 496 -289 506 -296 q 479 -279 486 -282 q 240 -138 360 -207 q 0 0 119 -69 l 0 583 q 76 542 38 564 q 150 496 115 521 z "},"v":{"ha":1154,"x_min":0,"x_max":1021,"o":"m 1021 569 l 1021 -14 q 958 -53 989 -36 q 892 -89 926 -69 q 703 -201 797 -146 q 513 -310 610 -257 q 256 -165 383 -237 q 0 -18 129 -93 q 2 242 0 111 q 4 486 4 374 q 2 502 4 493 q 0 524 0 511 l 0 569 q 17 582 3 576 q 38 590 31 588 q 94 626 65 610 q 154 657 122 642 q 229 615 192 635 q 304 569 267 594 q 226 526 264 547 q 150 482 188 504 l 150 124 q 149 96 150 111 q 150 74 147 81 q 158 66 151 71 q 172 57 164 61 q 186 49 179 53 q 196 44 193 46 q 354 -47 275 -3 q 508 -139 433 -92 q 692 -35 600 -86 q 871 69 783 17 l 871 482 q 796 527 833 507 q 721 569 758 547 q 794 616 756 594 q 871 657 833 638 l 1021 569 z "},"w":{"ha":1865,"x_min":0,"x_max":1738,"o":"m 150 478 l 150 69 q 331 -36 242 17 q 513 -139 421 -89 q 690 -37 600 -89 q 871 65 779 15 q 1048 -37 958 15 q 1225 -139 1138 -89 q 1406 -37 1317 -89 q 1588 65 1496 15 l 1588 428 q 1586 456 1588 440 q 1588 478 1585 471 q 1601 490 1588 485 q 1625 503 1615 496 q 1679 535 1653 518 q 1738 565 1706 553 l 1738 -18 q 1482 -167 1608 -93 q 1229 -314 1356 -242 q 1048 -212 1138 -264 q 871 -110 958 -160 q 692 -212 779 -160 q 513 -314 604 -264 q 256 -167 383 -242 q 0 -18 129 -93 l 0 565 q 76 524 38 546 q 150 478 115 503 z "},"x":{"ha":842,"x_min":0,"x_max":763,"o":"m 0 -139 q 102 36 50 -51 q 204 215 154 124 l 292 65 q 190 -114 242 -26 q 88 -289 138 -201 q 42 -215 63 -254 q 0 -139 22 -176 m 0 578 q 42 653 19 615 q 83 728 64 690 q 188 551 136 640 q 292 374 239 461 l 204 224 q 101 399 151 311 q 0 578 50 486 m 292 369 l 379 219 l 292 69 q 249 144 269 107 q 204 219 229 182 l 292 369 m 558 215 q 662 38 611 128 q 763 -139 713 -51 q 721 -214 743 -176 q 679 -289 699 -251 q 574 -110 626 -201 q 471 65 521 -19 l 558 215 m 675 728 q 720 653 700 690 q 763 578 740 615 q 660 399 713 486 q 558 224 608 311 q 513 297 536 258 q 471 374 490 336 q 573 549 521 461 q 675 728 625 636 m 292 374 l 471 374 q 515 297 493 336 q 558 219 536 257 q 515 141 536 179 q 471 65 493 103 l 292 65 q 247 141 269 100 q 204 219 224 182 q 248 297 226 257 q 292 374 269 336 m 204 219 q 248 143 226 182 q 292 69 269 104 l 379 219 q 337 293 357 257 q 292 369 317 329 l 204 219 m 467 65 q 506 133 486 100 q 546 199 526 167 q 551 209 549 206 q 554 215 554 213 l 383 215 q 340 142 361 181 q 296 65 318 103 l 467 65 m 383 219 l 554 219 q 512 296 535 254 q 467 369 489 338 l 296 369 l 383 219 z "},"y":{"ha":1003,"x_min":-158,"x_max":858,"o":"m -12 811 q 167 709 79 761 q 346 607 254 657 l 196 519 q 63 598 129 560 q -71 674 -4 636 q -115 699 -93 686 q -158 728 -136 713 q -84 768 -121 747 q -12 811 -47 789 m 858 724 q 679 623 767 674 q 504 519 592 572 q 428 563 464 542 q 354 607 392 585 q 482 684 414 644 q 617 761 550 724 q 660 785 639 774 q 704 807 682 797 q 722 803 711 810 q 746 790 733 797 q 801 757 771 775 q 858 724 831 739 m 346 436 q 273 474 308 451 q 200 519 238 497 q 272 563 235 542 q 346 603 308 583 q 347 522 349 563 q 346 436 346 481 m 350 603 q 424 561 388 583 q 500 519 460 539 l 350 432 l 350 603 m 500 344 q 426 301 465 322 q 350 257 388 279 l 350 428 q 424 473 385 453 q 500 515 463 493 l 500 344 m 500 -101 q 425 -143 463 -121 q 350 -185 388 -165 l 350 182 l 350 253 l 500 340 l 500 336 l 500 -101 z "},"z":{"ha":1140,"x_min":0,"x_max":1017,"o":"m 504 865 q 760 719 633 793 q 1017 569 888 644 q 1015 486 1014 529 q 1017 399 1017 443 q 702 216 860 304 q 388 36 544 128 q 344 9 365 21 q 300 -18 322 -3 q 402 -78 350 -50 q 504 -139 454 -107 q 685 -35 596 -86 q 863 69 775 17 q 939 27 900 47 q 1013 -18 978 7 q 758 -164 883 -90 q 504 -310 633 -237 q 252 -164 378 -237 q 0 -18 126 -90 q 52 13 25 -3 q 104 44 79 29 q 270 140 189 94 q 433 232 351 185 q 623 342 528 289 q 813 453 718 396 q 840 468 825 460 q 867 486 854 476 q 684 588 772 536 q 504 690 596 640 q 327 588 417 640 q 146 486 238 536 q 74 529 111 508 q 0 569 38 550 q 60 608 28 592 q 125 644 93 625 q 315 757 219 701 q 504 865 410 813 z "},"`":{"ha":383,"x_min":0,"x_max":375,"o":"m 0 638 q 190 530 94 585 q 375 418 285 475 q 322 388 347 404 q 268 356 296 371 q 132 437 197 399 q 0 513 67 475 l 0 638 z "},"^":{"ha":506,"x_min":0,"x_max":504,"o":"m 250 563 q 379 492 317 528 q 504 421 442 456 q 467 398 485 408 q 433 375 449 388 q 342 427 386 400 q 254 479 299 454 q 163 428 207 454 q 75 375 119 403 q 38 397 56 388 q 0 417 19 407 q 125 491 63 454 q 250 563 188 528 z "},"$":{"ha":1140,"x_min":-4,"x_max":1017,"o":"m 675 1075 l 675 792 q 599 835 635 814 q 525 879 563 857 q 524 985 525 932 q 525 1088 522 1038 l 525 1158 l 529 1158 q 602 1118 567 1139 q 675 1075 638 1097 m 504 883 q 760 738 633 811 q 1017 592 888 664 l 867 504 q 685 607 775 554 q 508 713 596 660 q 327 607 417 660 q 146 504 238 554 q 201 469 174 485 q 254 438 229 453 q 581 251 418 346 q 908 63 744 157 q 960 31 933 47 q 1013 0 988 15 q 760 -148 886 -75 q 508 -296 635 -221 q 317 -183 411 -239 q 125 -71 222 -128 q 60 -37 93 -56 q 0 0 28 -19 l 150 88 q 328 -17 238 35 q 504 -121 419 -68 q 610 -60 557 -89 q 713 0 663 -32 q 354 206 533 104 q -4 413 175 308 l -4 588 q 250 738 125 667 q 504 883 375 808 m 525 696 q 600 653 563 674 q 675 608 638 633 l 675 200 q 599 244 638 222 q 525 288 560 265 q 524 390 525 340 q 524 488 524 439 q 524 588 524 538 q 525 696 524 639 m 525 104 q 600 64 563 85 q 675 21 638 43 l 675 -21 q 600 -64 638 -43 q 525 -104 563 -85 l 525 104 m 675 -467 l 525 -554 l 525 -287 q 599 -244 560 -265 q 675 -200 638 -222 l 675 -467 z "},"*":{"ha":506,"x_min":0,"x_max":504,"o":"m 250 651 l 250 364 q 125 290 188 326 q 0 218 63 253 l 0 301 q 88 353 44 326 q 175 406 131 381 q 178 509 178 456 q 175 610 178 563 q 213 632 194 622 q 250 651 231 642 m 254 651 q 292 632 274 642 q 329 610 310 622 l 329 406 q 417 353 374 381 q 504 301 460 326 l 504 218 q 379 290 442 253 q 254 364 317 326 l 254 651 m 504 214 q 478 199 492 207 q 450 181 465 190 q 440 176 447 181 q 429 172 432 172 q 421 176 425 174 q 414 181 418 179 q 408 185 410 182 q 330 231 371 207 q 254 276 289 254 q 163 224 207 251 q 75 172 119 197 q 38 193 56 182 q 0 214 19 204 q 126 288 63 251 q 250 360 190 325 q 379 288 317 325 q 504 214 442 251 z "},"¡":{"ha":207,"x_min":-3,"x_max":153,"o":"m 150 1903 q 151 1817 153 1863 q 150 1732 150 1772 q 75 1686 113 1707 q 0 1640 38 1665 l 0 1815 q 75 1858 38 1838 q 150 1903 113 1878 m 150 1628 l 150 -85 q 142 -83 147 -87 q 133 -76 136 -79 q 67 -39 101 -57 q 0 -1 32 -21 q 1 578 -3 289 q 0 1161 6 867 l 0 1494 l 0 1540 q 15 1551 3 1543 q 38 1561 28 1558 q 93 1597 65 1581 q 146 1628 121 1613 l 150 1628 z "},"!":{"ha":183,"x_min":0,"x_max":150,"o":"m 0 1717 l 150 1629 l 150 88 q 75 42 113 65 q 0 0 38 19 l 0 1713 l 0 1717 m 150 -12 l 150 -187 q 75 -233 113 -210 q 0 -275 38 -256 l 0 -100 l 150 -12 z "},"+":{"ha":628,"x_min":-14,"x_max":556,"o":"m 244 572 q 269 557 257 564 q 294 542 282 550 l 294 344 l 528 344 q 542 322 535 333 q 556 294 549 310 q 433 297 489 297 q 311 297 378 297 q 301 297 308 297 q 294 294 294 297 q 293 288 292 294 q 294 278 294 282 q 293 155 292 217 q 294 31 294 93 q 269 15 282 22 q 244 0 256 7 l 244 294 q -14 294 110 299 q 0 319 -7 307 q 14 344 7 332 l 244 344 l 244 572 z "},"@":{"ha":1140,"x_min":0,"x_max":921,"o":"m 617 875 q 767 790 692 835 q 921 704 842 744 q 874 676 896 689 q 829 650 851 663 l 617 775 l 617 875 m 921 700 l 921 92 l 921 71 q 913 65 918 68 q 900 58 907 61 q 758 -23 831 18 q 617 -108 686 -64 q 615 -56 614 -83 q 617 -4 617 -29 q 723 60 669 31 q 829 121 776 89 l 829 646 q 874 674 851 661 q 921 700 896 688 m 308 529 q 460 440 383 485 q 613 350 538 394 l 613 0 q 607 1 608 0 l 604 4 q 563 28 582 17 q 521 50 543 40 q 524 167 524 107 q 521 283 524 226 q 522 292 521 286 q 521 300 524 297 q 510 308 521 303 q 496 313 499 313 l 308 425 q 198 363 251 393 q 92 300 144 332 l 92 83 l 92 50 q 104 42 94 47 q 117 33 114 36 q 213 -21 164 6 q 308 -75 261 -47 q 371 -37 340 -56 q 429 -4 401 -19 q 475 -29 451 -17 q 521 -54 499 -42 l 308 -179 q 154 -91 229 -135 q 0 0 79 -47 l 0 350 q 154 440 79 397 q 308 529 229 482 m 521 50 q 568 24 546 38 q 613 -4 590 11 l 613 -108 q 523 -55 568 -81 q 433 -4 478 -29 q 477 24 456 11 q 521 50 499 38 z "},"'":{"ha":135,"x_min":0,"x_max":71,"o":"m 0 881 q 38 861 19 871 q 71 839 56 851 l 71 639 q 35 617 56 626 q 0 597 15 607 l 0 881 z "},"#":{"ha":768,"x_min":0,"x_max":694,"o":"m 122 222 l 169 222 q 171 342 172 281 q 169 464 169 403 q 88 463 128 464 q 0 464 49 461 q 13 488 7 475 q 28 511 19 500 q 72 513 57 514 q 106 511 86 511 q 138 511 122 511 q 169 514 153 511 q 171 528 172 521 q 169 542 169 535 q 194 556 182 549 q 219 569 207 563 l 219 514 q 280 511 243 511 q 350 514 317 511 q 404 513 379 514 q 461 511 429 511 q 460 600 461 556 q 461 694 458 644 q 485 681 474 688 q 508 667 496 674 q 510 589 511 626 q 511 514 508 551 q 524 513 518 511 q 542 511 531 514 q 555 488 549 500 q 569 464 561 476 q 535 463 549 461 q 511 464 522 464 q 510 341 508 397 q 508 222 511 285 l 694 222 q 680 197 686 210 q 667 172 674 185 l 511 172 q 510 164 508 168 q 508 153 511 160 q 484 139 496 146 q 461 125 472 132 l 461 172 q 340 174 400 175 q 219 172 281 172 l 219 0 q 194 13 207 4 q 169 28 182 21 l 169 172 q 161 174 165 175 q 150 172 157 172 q 137 197 143 185 q 122 222 131 210 m 461 450 q 458 464 461 464 l 358 464 q 290 463 325 461 q 219 464 256 464 l 219 358 l 219 222 l 461 222 l 461 450 z "},"¿":{"ha":444,"x_min":-6,"x_max":390,"o":"m -6 942 q 39 917 17 929 q 86 892 61 904 l 86 788 q 40 811 64 797 q -6 838 17 825 l -6 942 m -6 800 q 40 774 17 788 q 86 746 64 761 l 86 -75 q 192 -12 139 -43 q 303 50 246 18 l 303 300 l 390 350 l 390 0 q 192 -116 290 -60 q -6 -229 94 -172 l -6 800 z "},"?":{"ha":743,"x_min":1,"x_max":656,"o":"m 656 1679 l 656 829 l 656 -25 q 582 15 618 -6 q 506 58 546 36 l 506 1417 q 484 1403 496 1410 q 460 1388 472 1397 q 309 1301 385 1347 q 151 1208 233 1256 l 151 804 q 75 758 111 782 q 1 713 39 735 l 1 1296 q 328 1485 168 1390 q 656 1679 489 1579 m 506 0 l 510 0 q 583 -45 547 -25 q 656 -87 618 -65 l 656 -258 q 639 -251 646 -258 q 622 -237 632 -244 q 562 -206 590 -222 q 506 -175 533 -190 q 506 0 511 -94 z "},"´":{"ha":378,"x_min":0,"x_max":375,"o":"m 375 513 q 243 437 308 475 q 107 356 178 399 q 53 388 79 371 q 0 418 28 404 q 185 530 90 475 q 375 638 281 585 l 375 513 z "},"·":{"ha":250,"x_min":0,"x_max":229,"o":"m 0 7 l 4 7 q 117 -58 61 -25 q 229 -118 172 -90 q 229 -381 222 -250 q 199 -365 210 -374 q 175 -347 188 -357 q 85 -301 131 -325 q 0 -256 40 -278 l 0 7 z "},".":{"ha":207,"x_min":0,"x_max":154,"o":"m 0 0 l 4 0 q 79 -43 42 -22 q 154 -83 117 -64 q 154 -258 147 -171 q 134 -250 142 -256 q 117 -237 126 -244 q 58 -206 89 -222 q 0 -175 28 -190 l 0 0 z "},":":{"ha":232,"x_min":0,"x_max":154,"o":"m 0 0 l 4 0 q 79 -43 42 -22 q 154 -83 117 -64 q 154 -258 147 -171 q 134 -250 142 -256 q 117 -237 126 -244 q 58 -206 89 -222 q 0 -175 28 -190 l 0 0 m 0 575 l 4 575 q 79 532 42 553 q 154 492 117 511 q 154 317 147 404 q 134 325 142 319 q 117 338 126 331 q 58 369 89 353 q 0 400 28 385 l 0 575 z "},";":{"ha":76,"x_min":-3,"x_max":56,"o":"m 0 204 q 26 187 13 194 q 56 168 40 179 l 56 104 q 26 122 40 114 q 0 139 13 129 q -1 172 0 154 q 0 204 -3 189 m 0 97 q 28 81 13 88 q 56 65 43 75 l 56 -94 q 14 -119 33 -104 q 6 -123 8 -119 q 0 -126 3 -126 q -1 -12 0 -69 q 0 97 -3 44 z "},",":{"ha":85,"x_min":-3,"x_max":83,"o":"m 0 0 q 42 -24 19 -14 q 83 -47 64 -33 l 83 -287 q 53 -304 69 -294 q 21 -325 36 -314 q 10 -330 14 -325 q 0 -335 6 -335 q -1 -165 0 -250 q 0 0 -3 -79 z "},"¸":{"ha":115,"x_min":-4,"x_max":111,"o":"m 0 0 q 56 -32 25 -19 q 111 -64 86 -44 l 111 -383 q 69 -405 92 -392 q 28 -433 47 -418 q 12 -440 17 -433 q 0 -447 7 -447 q -2 -221 0 -335 q 0 0 -4 -107 z "},"-":{"ha":414,"x_min":0,"x_max":419,"o":"m 0 139 q 28 194 15 167 q 61 250 42 222 l 358 250 q 389 197 374 226 q 419 139 404 167 l 0 139 z "},"=":{"ha":554,"x_min":0,"x_max":419,"o":"m 0 375 q 28 431 15 403 q 61 486 42 458 l 358 486 q 389 433 374 463 q 419 375 404 403 l 0 375 m 0 139 q 28 194 15 167 q 61 250 42 222 l 358 250 q 389 197 374 226 q 419 139 404 167 l 0 139 z "},"(":{"ha":725,"x_min":0,"x_max":599,"o":"m 0 -67 l 0 619 q 299 794 151 707 q 599 964 447 881 q 596 862 594 913 q 593 760 597 811 q 387 638 490 697 q 181 517 283 579 l 181 36 q 388 -85 283 -26 q 599 -207 492 -144 q 599 -407 590 -310 q 299 -236 447 -322 q 0 -67 151 -150 z "},")":{"ha":671,"x_min":4,"x_max":597,"o":"m 4 933 q 301 764 156 850 q 597 593 447 678 l 597 -92 q 588 -99 594 -96 q 578 -107 582 -103 q 291 -272 435 -187 q 4 -437 147 -357 l 4 -237 q 56 -205 31 -219 q 107 -175 81 -190 q 265 -85 188 -131 q 422 6 342 -39 l 422 492 q 212 613 317 554 q 4 729 107 671 l 4 933 z "},"~":{"ha":317,"x_min":0,"x_max":315,"o":"m 0 417 q 22 458 11 436 q 46 500 32 479 l 269 500 q 292 459 281 482 q 315 417 304 436 l 0 417 z "},"˜":{"ha":324,"x_min":0,"x_max":315,"o":"m 0 417 q 22 458 11 436 q 46 500 32 479 l 269 500 q 292 459 281 482 q 315 417 304 436 l 0 417 z "},"\"":{"ha":500,"x_min":-7,"x_max":375,"o":"m 0 949 q 83 901 38 921 q 167 853 129 881 l 167 374 q 104 341 139 361 q 42 299 69 321 q 18 288 26 299 q 0 278 10 278 q -3 618 0 447 q 0 949 -7 789 m 208 949 q 292 901 246 921 q 375 853 338 881 l 375 374 q 313 341 347 361 q 250 299 278 321 q 226 288 235 299 q 208 278 218 278 q 205 618 208 447 q 208 949 201 789 z "},"“":{"ha":482,"x_min":-7,"x_max":375,"o":"m 0 949 q 83 901 38 921 q 167 853 129 881 l 167 374 q 104 341 139 361 q 42 299 69 321 q 18 288 26 299 q 0 278 10 278 q -3 618 0 447 q 0 949 -7 789 m 208 949 q 292 901 246 921 q 375 853 338 881 l 375 374 q 313 341 347 361 q 250 299 278 321 q 226 288 235 299 q 208 278 218 278 q 205 618 208 447 q 208 949 201 789 z "},"”":{"ha":500,"x_min":0,"x_max":382,"o":"m 375 947 q 378 617 382 788 q 375 276 375 446 q 357 287 365 276 q 333 297 349 297 q 271 340 306 319 q 208 372 236 360 l 208 851 q 292 899 246 879 q 375 947 338 919 m 167 947 q 170 617 174 788 q 167 276 167 446 q 149 287 157 276 q 125 297 140 297 q 63 340 97 319 q 0 372 28 360 l 0 851 q 83 899 38 879 q 167 947 129 919 z "},"&":{"ha":1281,"x_min":-15,"x_max":1156,"o":"m 647 879 q 837 771 742 826 q 1026 658 932 715 q 1092 623 1061 639 q 1156 588 1124 607 q 900 440 1026 513 q 647 292 774 367 l 497 379 q 674 483 589 432 q 851 588 760 535 q 749 648 801 619 q 647 708 697 676 q 466 604 556 656 q 289 500 376 553 l 289 88 q 213 131 249 110 q 139 175 176 153 l 139 533 q 138 561 139 546 q 139 583 136 576 q 150 594 139 586 q 168 604 161 601 q 408 743 288 674 q 647 879 528 813 m 135 171 l 135 0 q 60 43 97 22 q -15 83 22 64 l 135 171 m 1006 83 l 1156 -4 q 1093 -42 1124 -24 q 1031 -75 1063 -60 q 856 -177 943 -125 q 681 -279 768 -229 q 662 -289 674 -282 q 647 -296 650 -296 q 633 -289 644 -296 q 614 -279 621 -282 q 375 -141 494 -210 q 139 0 256 -72 l 139 171 q 393 24 268 99 q 647 -125 518 -50 q 828 -19 739 -72 q 1006 83 918 33 z "},"à":{"ha":1110,"x_min":0,"x_max":1021,"o":"m 508 883 q 765 735 638 808 q 1021 588 892 663 q 1021 4 1014 299 q 1010 7 1014 4 q 1000 13 1007 10 q 935 50 968 32 q 867 88 901 68 l 867 450 q 868 475 867 460 q 867 500 869 490 q 861 507 867 503 q 849 515 856 511 q 835 521 842 518 q 825 525 828 524 q 667 617 746 572 q 508 708 588 661 q 331 606 421 658 q 150 500 242 553 l 150 88 q 316 -10 232 38 q 488 -108 400 -58 q 498 -116 490 -111 q 508 -121 506 -121 q 519 -116 511 -121 q 533 -108 526 -111 q 624 -55 581 -81 q 713 -4 668 -29 q 789 -47 750 -24 q 863 -92 828 -69 q 685 -194 775 -142 q 508 -296 596 -246 q 253 -148 379 -221 q 0 0 126 -75 l 0 588 q 253 734 126 660 q 508 883 379 808 m 1021 0 q 1021 -175 1014 -90 q 867 -90 942 -135 q 717 0 792 -44 q 792 42 754 22 q 867 83 829 61 q 942 42 904 64 q 1021 0 981 19 m 43 1125 q 233 1017 138 1072 q 418 906 328 963 q 365 875 390 892 q 311 843 339 858 q 175 924 240 886 q 43 1000 110 963 l 43 1125 z "},"á":{"ha":1110,"x_min":0,"x_max":1021,"o":"m 508 883 q 765 735 638 808 q 1021 588 892 663 q 1021 4 1014 299 q 1010 7 1014 4 q 1000 13 1007 10 q 935 50 968 32 q 867 88 901 68 l 867 450 q 868 475 867 460 q 867 500 869 490 q 861 507 867 503 q 849 515 856 511 q 835 521 842 518 q 825 525 828 524 q 667 617 746 572 q 508 708 588 661 q 331 606 421 658 q 150 500 242 553 l 150 88 q 316 -10 232 38 q 488 -108 400 -58 q 498 -116 490 -111 q 508 -121 506 -121 q 519 -116 511 -121 q 533 -108 526 -111 q 624 -55 581 -81 q 713 -4 668 -29 q 789 -47 750 -24 q 863 -92 828 -69 q 685 -194 775 -142 q 508 -296 596 -246 q 253 -148 379 -221 q 0 0 126 -75 l 0 588 q 253 734 126 660 q 508 883 379 808 m 1021 0 q 1021 -175 1014 -90 q 867 -90 942 -135 q 717 0 792 -44 q 792 42 754 22 q 867 83 829 61 q 942 42 904 64 q 1021 0 981 19 m 938 1000 q 806 924 871 963 q 669 843 740 886 q 616 875 642 858 q 563 906 590 892 q 748 1017 653 963 q 938 1125 843 1072 l 938 1000 z "},"ã":{"ha":1110,"x_min":0,"x_max":1021,"o":"m 508 883 q 765 735 638 808 q 1021 588 892 663 q 1021 4 1014 299 q 1010 7 1014 4 q 1000 13 1007 10 q 935 50 968 32 q 867 88 901 68 l 867 450 q 868 475 867 460 q 867 500 869 490 q 861 507 867 503 q 849 515 856 511 q 835 521 842 518 q 825 525 828 524 q 667 617 746 572 q 508 708 588 661 q 331 606 421 658 q 150 500 242 553 l 150 88 q 316 -10 232 38 q 488 -108 400 -58 q 498 -116 490 -111 q 508 -121 506 -121 q 519 -116 511 -121 q 533 -108 526 -111 q 624 -55 581 -81 q 713 -4 668 -29 q 789 -47 750 -24 q 863 -92 828 -69 q 685 -194 775 -142 q 508 -296 596 -246 q 253 -148 379 -221 q 0 0 126 -75 l 0 588 q 253 734 126 660 q 508 883 379 808 m 1021 0 q 1021 -175 1014 -90 q 867 -90 942 -135 q 717 0 792 -44 q 792 42 754 22 q 867 83 829 61 q 942 42 904 64 q 1021 0 981 19 m 356 978 q 377 1019 367 997 q 401 1061 388 1040 l 625 1061 q 648 1020 636 1043 q 671 978 660 997 l 356 978 z "},"ç":{"ha":1140,"x_min":0,"x_max":1017,"o":"m 508 883 q 764 738 638 811 q 1017 592 890 664 q 943 547 979 567 q 867 504 907 526 q 690 606 779 554 q 513 708 600 658 q 331 606 421 658 q 150 500 242 553 l 150 88 q 196 63 172 75 q 242 38 219 50 q 375 -42 308 0 q 508 -121 442 -83 q 690 -17 600 -68 q 867 88 779 35 l 1017 0 q 765 -148 890 -75 q 513 -296 639 -221 q 255 -148 381 -221 q 0 0 129 -75 l 0 313 l 0 588 q 254 735 126 663 q 508 883 382 808 m 400 -283 q 456 -315 425 -303 q 511 -347 486 -328 l 511 -667 q 469 -688 492 -675 q 428 -717 447 -701 q 412 -724 417 -717 q 400 -731 407 -731 q 398 -504 400 -618 q 400 -283 396 -390 z "},"è":{"ha":1140,"x_min":0,"x_max":1017,"o":"m 1017 592 q 764 444 890 517 q 508 296 638 371 q 437 340 474 318 q 363 383 400 361 q 540 488 450 436 q 717 592 629 539 q 615 652 667 624 q 513 708 563 681 q 331 606 421 658 q 150 500 242 553 l 150 88 q 331 -17 242 35 q 508 -121 421 -68 q 688 -17 600 -68 q 867 88 775 35 l 1017 0 q 764 -147 890 -75 q 508 -292 638 -219 q 256 -146 382 -219 q 0 0 129 -72 l 0 588 q 219 715 107 650 q 442 842 332 779 q 473 862 457 851 q 504 879 489 872 q 524 876 514 882 q 550 863 535 869 q 785 726 667 793 q 1017 592 904 658 m 56 1119 q 245 1012 150 1067 q 431 900 340 957 q 377 869 403 886 q 324 838 351 853 q 188 919 253 881 q 56 994 122 957 l 56 1119 z "},"é":{"ha":1140,"x_min":0,"x_max":1017,"o":"m 1017 592 q 764 444 890 517 q 508 296 638 371 q 437 340 474 318 q 363 383 400 361 q 540 488 450 436 q 717 592 629 539 q 615 652 667 624 q 513 708 563 681 q 331 606 421 658 q 150 500 242 553 l 150 88 q 331 -17 242 35 q 508 -121 421 -68 q 688 -17 600 -68 q 867 88 775 35 l 1017 0 q 764 -147 890 -75 q 508 -292 638 -219 q 256 -146 382 -219 q 0 0 129 -72 l 0 588 q 219 715 107 650 q 442 842 332 779 q 473 862 457 851 q 504 879 489 872 q 524 876 514 882 q 550 863 535 869 q 785 726 667 793 q 1017 592 904 658 m 933 1001 q 801 926 867 964 q 665 844 736 888 q 612 876 638 860 q 558 907 586 893 q 744 1019 649 964 q 933 1126 839 1074 l 933 1001 z "},"ì":{"ha":281,"x_min":-54,"x_max":204,"o":"m 7 585 q 78 541 43 563 q 149 497 113 519 q 147 376 147 426 q 146 281 146 325 q 147 191 146 236 q 149 86 147 146 q 77 43 113 65 q 0 0 42 21 q 1 55 0 22 q 2 123 1 88 q 3 192 3 158 q 0 249 3 225 q 3 433 0 346 q 0 582 6 521 q 6 583 4 582 q 7 585 7 583 m -54 791 q 76 717 11 755 q 204 640 142 679 q 167 619 185 630 q 130 597 150 607 q 37 653 82 626 q -54 705 -8 679 l -54 791 z "},"í":{"ha":317,"x_min":0,"x_max":274,"o":"m 7 585 q 78 541 43 563 q 149 497 113 519 q 147 376 147 426 q 146 281 146 325 q 147 191 146 236 q 149 86 147 146 q 77 43 113 65 q 0 0 42 21 q 1 55 0 22 q 2 123 1 88 q 3 192 3 158 q 0 249 3 225 q 3 433 0 346 q 0 582 6 521 q 6 583 4 582 q 7 585 7 583 m 274 791 q 143 717 209 755 q 15 640 77 679 q 52 619 34 630 q 89 597 70 607 q 183 653 138 626 q 274 705 228 679 l 274 791 z "},"ñ":{"ha":1140,"x_min":0,"x_max":1021,"o":"m 508 865 q 766 717 640 790 q 1021 569 892 644 l 1021 -18 l 871 69 l 871 482 q 825 509 849 497 q 779 536 801 521 q 646 613 713 574 q 513 690 579 653 q 331 588 421 640 q 150 482 242 535 l 150 124 q 151 95 150 111 q 150 69 153 79 q 135 59 150 67 q 113 49 119 51 q 56 13 85 29 q 0 -18 28 -3 l 0 432 l 0 861 q 75 821 38 842 q 150 778 113 800 l 150 657 q 333 760 244 707 q 508 865 421 813 m 357 990 q 378 1031 368 1010 q 403 1074 389 1053 l 626 1074 q 649 1033 638 1056 q 672 990 661 1010 l 357 990 z "},"ò":{"ha":1140,"x_min":0,"x_max":1021,"o":"m 508 861 q 766 715 640 789 q 1021 565 892 640 q 1019 283 1018 424 q 1021 -1 1021 143 l 1021 -18 q 1008 -31 1018 -25 q 988 -39 997 -36 q 751 -176 871 -108 q 513 -314 632 -244 q 256 -167 383 -242 q 0 -18 129 -93 q 1 267 3 133 q 0 532 0 400 l 0 565 q 15 576 3 568 q 33 586 26 583 q 144 649 90 618 q 254 711 197 679 q 383 788 321 751 q 508 861 446 824 m 150 478 l 150 65 q 331 -39 242 13 q 508 -143 421 -90 q 668 -51 590 -96 q 825 40 746 -7 q 835 45 828 42 q 849 53 842 49 q 863 62 857 57 q 871 69 869 67 q 872 92 874 76 q 871 119 871 107 l 871 478 q 692 583 783 531 q 513 686 600 636 q 331 583 421 636 q 150 478 242 531 m 667 361 q 665 274 667 317 q 667 186 664 231 q 590 139 629 161 q 513 94 550 117 q 434 138 472 117 q 358 182 396 160 q 356 273 356 232 q 358 361 356 314 q 434 407 393 383 q 513 453 475 431 q 590 408 550 431 q 667 361 629 386 m 508 449 q 437 405 474 426 q 363 361 400 383 q 436 317 397 339 q 513 274 475 296 q 585 317 547 296 q 658 361 624 339 q 585 405 621 383 q 508 449 549 426 m 358 186 q 426 147 393 167 q 492 111 460 126 q 502 103 499 108 q 508 99 506 99 l 508 269 q 435 315 474 294 q 358 361 396 336 l 358 186 m 513 269 l 513 99 q 589 142 550 121 q 663 186 628 164 q 664 274 663 231 q 663 361 665 317 q 588 315 625 336 q 513 269 550 294 m 53 1107 q 242 999 147 1054 q 428 888 338 944 q 374 857 400 874 q 321 825 349 840 q 185 906 250 868 q 53 982 119 944 l 53 1107 z "},"ó":{"ha":1140,"x_min":0,"x_max":1021,"o":"m 508 861 q 766 715 640 789 q 1021 565 892 640 q 1019 283 1018 424 q 1021 -1 1021 143 l 1021 -18 q 1008 -31 1018 -25 q 988 -39 997 -36 q 751 -176 871 -108 q 513 -314 632 -244 q 256 -167 383 -242 q 0 -18 129 -93 q 1 267 3 133 q 0 532 0 400 l 0 565 q 15 576 3 568 q 33 586 26 583 q 144 649 90 618 q 254 711 197 679 q 383 788 321 751 q 508 861 446 824 m 150 478 l 150 65 q 331 -39 242 13 q 508 -143 421 -90 q 668 -51 590 -96 q 825 40 746 -7 q 835 45 828 42 q 849 53 842 49 q 863 62 857 57 q 871 69 869 67 q 872 92 874 76 q 871 119 871 107 l 871 478 q 692 583 783 531 q 513 686 600 636 q 331 583 421 636 q 150 478 242 531 m 667 361 q 665 274 667 317 q 667 186 664 231 q 590 139 629 161 q 513 94 550 117 q 434 138 472 117 q 358 182 396 160 q 356 273 356 232 q 358 361 356 314 q 434 407 393 383 q 513 453 475 431 q 590 408 550 431 q 667 361 629 386 m 508 449 q 437 405 474 426 q 363 361 400 383 q 436 317 397 339 q 513 274 475 296 q 585 317 547 296 q 658 361 624 339 q 585 405 621 383 q 508 449 549 426 m 358 186 q 426 147 393 167 q 492 111 460 126 q 502 103 499 108 q 508 99 506 99 l 508 269 q 435 315 474 294 q 358 361 396 336 l 358 186 m 513 269 l 513 99 q 589 142 550 121 q 663 186 628 164 q 664 274 663 231 q 663 361 665 317 q 588 315 625 336 q 513 269 550 294 m 933 994 q 801 919 867 957 q 665 838 736 881 q 612 869 638 853 q 558 900 586 886 q 744 1012 649 957 q 933 1119 839 1067 l 933 994 z "},"ù":{"ha":1140,"x_min":0,"x_max":1021,"o":"m 150 496 l 150 138 q 149 111 150 125 q 150 88 147 97 q 158 80 151 85 q 172 71 164 75 q 186 63 179 67 q 196 58 193 60 q 354 -31 275 14 q 513 -121 433 -76 q 692 -17 604 -68 q 871 88 779 35 l 871 446 q 869 474 871 458 q 871 496 868 489 q 886 508 874 503 q 908 521 899 514 l 1021 583 l 1021 38 l 1021 0 q 1008 -8 1018 -3 q 992 -21 999 -14 q 767 -149 875 -87 q 542 -279 658 -210 q 525 -289 535 -282 q 513 -296 515 -296 q 496 -289 506 -296 q 479 -279 486 -282 q 240 -138 360 -207 q 0 0 119 -69 l 0 583 q 76 542 38 564 q 150 496 115 521 m 267 967 q 456 859 361 914 q 642 747 551 804 q 588 717 614 733 q 535 685 563 700 q 399 766 464 728 q 267 842 333 804 l 267 967 z "},"ú":{"ha":1140,"x_min":0,"x_max":1021,"o":"m 150 496 l 150 138 q 149 111 150 125 q 150 88 147 97 q 158 80 151 85 q 172 71 164 75 q 186 63 179 67 q 196 58 193 60 q 354 -31 275 14 q 513 -121 433 -76 q 692 -17 604 -68 q 871 88 779 35 l 871 446 q 869 474 871 458 q 871 496 868 489 q 886 508 874 503 q 908 521 899 514 l 1021 583 l 1021 38 l 1021 0 q 1008 -8 1018 -3 q 992 -21 999 -14 q 767 -149 875 -87 q 542 -279 658 -210 q 525 -289 535 -282 q 513 -296 515 -296 q 496 -289 506 -296 q 479 -279 486 -282 q 240 -138 360 -207 q 0 0 119 -69 l 0 583 q 76 542 38 564 q 150 496 115 521 m 818 858 q 686 783 751 821 q 550 701 621 744 q 497 733 522 717 q 443 764 471 750 q 628 876 533 821 q 818 983 724 931 l 818 858 z "},"ê":{"ha":1140,"x_min":0,"x_max":1017,"o":"m 508 1089 q 638 1018 575 1054 q 763 947 700 982 q 725 924 743 935 q 692 901 707 914 q 601 953 644 926 q 513 1006 557 981 q 422 955 465 981 q 333 901 378 929 q 296 924 314 914 q 258 943 278 933 q 383 1017 321 981 q 508 1089 446 1054 m 1017 592 q 764 444 890 517 q 508 296 638 371 q 437 340 474 318 q 363 383 400 361 q 540 488 450 436 q 717 592 629 539 q 615 652 667 624 q 513 708 563 681 q 331 606 421 658 q 150 500 242 553 l 150 88 q 331 -17 242 35 q 508 -121 421 -68 q 688 -17 600 -68 q 867 88 775 35 l 1017 0 q 764 -147 890 -75 q 508 -292 638 -219 q 256 -146 382 -219 q 0 0 129 -72 l 0 588 q 219 715 107 650 q 442 842 332 779 q 473 862 457 851 q 504 879 489 872 q 524 876 514 882 q 550 863 535 869 q 785 726 667 793 q 1017 592 904 658 z "},"â":{"ha":1110,"x_min":0,"x_max":1021,"o":"m 508 1056 q 638 985 575 1021 q 763 914 700 949 q 725 891 743 901 q 692 868 707 881 q 601 920 644 893 q 513 972 557 947 q 422 922 465 947 q 333 868 378 896 q 296 890 314 881 q 258 910 278 900 q 383 984 321 947 q 508 1056 446 1021 m 508 883 q 765 735 638 808 q 1021 588 892 663 q 1021 4 1014 299 q 1010 7 1014 4 q 1000 13 1007 10 q 935 50 968 32 q 867 88 901 68 l 867 450 q 868 475 867 460 q 867 500 869 490 q 861 507 867 503 q 849 515 856 511 q 835 521 842 518 q 825 525 828 524 q 667 617 746 572 q 508 708 588 661 q 331 606 421 658 q 150 500 242 553 l 150 88 q 316 -10 232 38 q 488 -108 400 -58 q 498 -116 490 -111 q 508 -121 506 -121 q 519 -116 511 -121 q 533 -108 526 -111 q 624 -55 581 -81 q 713 -4 668 -29 q 789 -47 750 -24 q 863 -92 828 -69 q 685 -194 775 -142 q 508 -296 596 -246 q 253 -148 379 -221 q 0 0 126 -75 l 0 588 q 253 734 126 660 q 508 883 379 808 m 1021 0 q 1021 -175 1014 -90 q 867 -90 942 -135 q 717 0 792 -44 q 792 42 754 22 q 867 83 829 61 q 942 42 904 64 q 1021 0 981 19 z "},"î":{"ha":610,"x_min":1,"x_max":506,"o":"m 251 778 q 381 707 318 743 q 506 636 443 671 q 468 613 486 624 q 435 590 450 603 q 344 642 388 615 q 256 694 300 669 q 165 644 208 669 q 76 590 121 618 q 39 613 57 603 q 1 632 21 622 q 126 706 64 669 q 251 778 189 743 m 269 594 q 268 593 269 593 q 263 592 267 592 q 265 443 268 531 q 263 258 263 356 q 265 201 265 235 q 265 133 265 168 q 263 65 264 97 q 263 10 263 32 q 340 53 304 31 q 411 96 375 75 q 409 201 410 156 q 408 290 408 246 q 409 385 408 335 q 411 507 410 436 q 340 551 375 529 q 269 594 306 572 z "},"ô":{"ha":1151,"x_min":0,"x_max":1021,"o":"m 508 1083 q 638 1013 575 1049 q 763 942 700 976 q 725 919 743 929 q 692 896 707 908 q 601 948 644 921 q 513 1000 557 975 q 422 949 465 975 q 333 896 378 924 q 296 918 314 908 q 258 938 278 928 q 383 1012 321 975 q 508 1083 446 1049 m 508 861 q 766 715 640 789 q 1021 565 892 640 q 1019 283 1018 424 q 1021 -1 1021 143 l 1021 -18 q 1008 -31 1018 -25 q 988 -39 997 -36 q 751 -176 871 -108 q 513 -314 632 -244 q 256 -167 383 -242 q 0 -18 129 -93 q 1 267 3 133 q 0 532 0 400 l 0 565 q 15 576 3 568 q 33 586 26 583 q 144 649 90 618 q 254 711 197 679 q 383 788 321 751 q 508 861 446 824 m 150 478 l 150 65 q 331 -39 242 13 q 508 -143 421 -90 q 668 -51 590 -96 q 825 40 746 -7 q 835 45 828 42 q 849 53 842 49 q 863 62 857 57 q 871 69 869 67 q 872 92 874 76 q 871 119 871 107 l 871 478 q 692 583 783 531 q 513 686 600 636 q 331 583 421 636 q 150 478 242 531 m 667 361 q 665 274 667 317 q 667 186 664 231 q 590 139 629 161 q 513 94 550 117 q 434 138 472 117 q 358 182 396 160 q 356 273 356 232 q 358 361 356 314 q 434 407 393 383 q 513 453 475 431 q 590 408 550 431 q 667 361 629 386 m 508 449 q 437 405 474 426 q 363 361 400 383 q 436 317 397 339 q 513 274 475 296 q 585 317 547 296 q 658 361 624 339 q 585 405 621 383 q 508 449 549 426 m 358 186 q 426 147 393 167 q 492 111 460 126 q 502 103 499 108 q 508 99 506 99 l 508 269 q 435 315 474 294 q 358 361 396 336 l 358 186 m 513 269 l 513 99 q 589 142 550 121 q 663 186 628 164 q 664 274 663 231 q 663 361 665 317 q 588 315 625 336 q 513 269 550 294 z "},"û":{"ha":1140,"x_min":0,"x_max":1021,"o":"m 508 803 q 638 732 575 768 q 763 661 700 696 q 725 638 743 649 q 692 615 707 628 q 601 667 644 640 q 513 719 557 694 q 422 669 465 694 q 333 615 378 643 q 296 638 314 628 q 258 657 278 647 q 383 731 321 694 q 508 803 446 768 m 150 496 l 150 138 q 149 111 150 125 q 150 88 147 97 q 158 80 151 85 q 172 71 164 75 q 186 63 179 67 q 196 58 193 60 q 354 -31 275 14 q 513 -121 433 -76 q 692 -17 604 -68 q 871 88 779 35 l 871 446 q 869 474 871 458 q 871 496 868 489 q 886 508 874 503 q 908 521 899 514 l 1021 583 l 1021 38 l 1021 0 q 1008 -8 1018 -3 q 992 -21 999 -14 q 767 -149 875 -87 q 542 -279 658 -210 q 525 -289 535 -282 q 513 -296 515 -296 q 496 -289 506 -296 q 479 -279 486 -282 q 240 -138 360 -207 q 0 0 119 -69 l 0 583 q 76 542 38 564 q 150 496 115 521 z "},"A":{"ha":1110,"x_min":0,"x_max":1021,"o":"m 508 883 q 765 735 638 808 q 1021 588 892 663 q 1021 4 1014 299 q 1010 7 1014 4 q 1000 13 1007 10 q 935 50 968 32 q 867 88 901 68 l 867 450 q 868 475 867 460 q 867 500 869 490 q 861 507 867 503 q 849 515 856 511 q 835 521 842 518 q 825 525 828 524 q 667 617 746 572 q 508 708 588 661 q 331 606 421 658 q 150 500 242 553 l 150 88 q 316 -10 232 38 q 488 -108 400 -58 q 498 -116 490 -111 q 508 -121 506 -121 q 519 -116 511 -121 q 533 -108 526 -111 q 624 -55 581 -81 q 713 -4 668 -29 q 789 -47 750 -24 q 863 -92 828 -69 q 685 -194 775 -142 q 508 -296 596 -246 q 253 -148 379 -221 q 0 0 126 -75 l 0 588 q 253 734 126 660 q 508 883 379 808 m 1021 0 q 1021 -175 1014 -90 q 867 -90 942 -135 q 717 0 792 -44 q 792 42 754 22 q 867 83 829 61 q 942 42 904 64 q 1021 0 981 19 z "},"B":{"ha":1158,"x_min":0,"x_max":1021,"o":"m 150 1088 l 150 675 q 333 777 244 725 q 508 879 421 829 q 702 773 606 826 q 896 663 799 719 l 1021 588 l 1021 0 q 958 -37 989 -19 q 892 -75 926 -56 q 702 -183 797 -128 q 513 -296 607 -239 q 256 -148 383 -221 q 0 0 129 -75 l 0 604 q 1 894 0 749 q 0 1171 3 1039 l 0 1175 q 150 1088 81 1131 m 513 708 q 331 606 421 658 q 150 500 242 553 l 150 88 q 331 -17 242 35 q 508 -121 421 -68 q 690 -18 600 -71 q 871 88 779 35 l 871 500 q 692 604 779 553 q 513 708 604 656 z "},"C":{"ha":1140,"x_min":0,"x_max":1017,"o":"m 508 883 q 764 738 638 811 q 1017 592 890 664 q 943 547 979 567 q 867 504 907 526 q 690 606 779 554 q 513 708 600 658 q 331 606 421 658 q 150 500 242 553 l 150 88 q 196 63 172 75 q 242 38 219 50 q 375 -42 308 0 q 508 -121 442 -83 q 690 -17 600 -68 q 867 88 779 35 l 1017 0 q 765 -148 890 -75 q 513 -296 639 -221 q 255 -148 381 -221 q 0 0 129 -75 l 0 313 l 0 588 q 254 735 126 663 q 508 883 382 808 z "},"D":{"ha":1140,"x_min":0,"x_max":1021,"o":"m 871 1069 q 1021 1157 939 1113 l 1021 1153 q 1019 876 1018 1021 q 1021 586 1021 731 l 1021 -18 q 765 -166 892 -93 q 508 -314 638 -239 q 319 -201 414 -257 q 129 -93 224 -146 q 63 -56 94 -74 q 0 -18 32 -37 l 0 569 l 125 644 q 319 755 222 701 q 513 861 415 808 q 688 759 600 811 q 871 657 776 707 l 871 1069 m 508 690 q 329 586 417 638 q 150 482 242 535 l 150 69 q 331 -36 242 17 q 513 -139 421 -89 q 690 -35 600 -86 q 871 69 779 17 l 871 482 q 690 588 779 535 q 508 690 600 640 z "},"E":{"ha":1140,"x_min":0,"x_max":1017,"o":"m 1017 592 q 764 444 890 517 q 508 296 638 371 q 437 340 474 318 q 363 383 400 361 q 540 488 450 436 q 717 592 629 539 q 615 652 667 624 q 513 708 563 681 q 331 606 421 658 q 150 500 242 553 l 150 88 q 331 -17 242 35 q 508 -121 421 -68 q 688 -17 600 -68 q 867 88 775 35 l 1017 0 q 764 -147 890 -75 q 508 -292 638 -219 q 256 -146 382 -219 q 0 0 129 -72 l 0 588 q 219 715 107 650 q 442 842 332 779 q 473 862 457 851 q 504 879 489 872 q 524 876 514 882 q 550 863 535 869 q 785 726 667 793 q 1017 592 904 658 z "},"F":{"ha":640,"x_min":-4,"x_max":504,"o":"m 504 542 l 504 371 q 500 370 501 368 q 496 375 499 372 q 323 473 411 422 q 150 571 235 524 l 150 -800 l 150 -842 q 131 -856 147 -849 q 113 -867 115 -864 q 54 -899 85 -882 q -4 -929 24 -917 q -3 -256 -4 -590 q 0 408 -3 78 q -2 624 0 515 q -4 829 -4 732 q 0 833 -4 833 q 252 688 126 761 q 504 542 378 614 m 150 333 q 329 230 242 281 q 504 129 417 179 l 504 -46 q 329 56 417 4 q 150 158 242 108 l 150 333 z "},"G":{"ha":1140,"x_min":-4,"x_max":1019,"o":"m 504 865 q 762 719 636 793 q 1017 574 888 646 l 1017 24 q 1018 3 1017 14 q 1017 -14 1019 -7 q 998 -28 1014 -21 q 975 -43 982 -36 q 819 -133 896 -87 q 663 -222 742 -178 l 663 -51 q 765 10 713 -17 q 867 69 817 38 l 867 457 l 867 482 q 859 490 865 485 q 845 499 853 494 q 831 506 838 503 q 821 511 824 510 q 665 603 742 558 q 508 694 588 647 q 327 589 417 642 q 150 486 238 536 q 150 99 143 299 q 149 84 150 92 q 150 74 147 76 q 156 66 150 71 q 168 57 161 61 q 182 49 175 53 q 192 44 189 46 q 350 -47 271 -3 q 504 -139 429 -92 q 506 -222 507 -179 q 504 -306 504 -265 q 492 -301 500 -310 q 244 -158 369 -229 q 0 -18 119 -87 q -2 130 -1 54 q -3 282 -3 206 q -3 431 -3 358 q -4 569 -3 504 q 251 719 125 649 q 504 865 378 790 m 658 365 l 658 361 q 660 175 658 264 q 658 -1 661 86 l 658 -218 l 658 -401 q 404 -547 529 -474 q 150 -693 279 -621 l 150 -522 q 329 -417 238 -469 q 508 -314 421 -364 l 508 274 q 583 319 546 299 q 658 365 621 340 m 663 365 l 663 190 q 585 143 625 165 q 508 99 546 121 q 429 143 468 121 q 350 190 390 165 l 350 365 q 429 413 388 390 q 508 457 471 435 q 585 413 546 435 q 663 365 625 390 m 504 453 q 431 409 469 431 q 358 365 393 388 l 508 278 q 582 323 546 303 q 658 365 618 343 q 583 409 621 388 q 504 453 544 431 m 354 190 q 421 153 386 171 q 488 115 456 135 q 496 108 490 113 q 504 107 501 104 l 504 274 q 431 319 469 299 q 354 365 392 340 l 354 190 m 508 274 l 508 103 q 585 148 543 125 q 658 190 626 171 l 658 365 q 583 319 621 340 q 508 274 546 299 z "},"H":{"ha":1140,"x_min":0,"x_max":1021,"o":"m 150 1088 l 150 675 q 174 685 163 678 q 196 700 186 693 q 354 790 275 744 q 508 879 433 835 q 765 733 638 807 q 1021 588 892 660 l 1021 0 q 1010 4 1014 0 q 1004 8 1007 8 q 936 47 969 28 q 871 88 903 65 l 871 446 q 872 474 871 458 q 871 496 874 489 q 851 512 868 506 q 825 525 835 518 q 669 615 746 569 q 513 708 592 661 q 331 604 421 656 q 150 500 242 553 l 150 88 q 76 44 115 65 q 0 0 38 22 l 0 604 l 0 1171 l 0 1175 l 150 1088 z "},"I":{"ha":281,"x_min":0,"x_max":149,"o":"m 7 585 q 78 541 43 563 q 149 497 113 519 q 147 376 147 426 q 146 281 146 325 q 147 191 146 236 q 149 86 147 146 q 77 43 113 65 q 0 0 42 21 q 1 55 0 22 q 2 123 1 88 q 3 192 3 158 q 0 249 3 225 q 3 433 0 346 q 0 582 6 521 q 6 583 4 582 q 7 585 7 583 z "},"J":{"ha":597,"x_min":-7,"x_max":501,"o":"m 501 0 q 247 -147 372 -75 q -7 -292 122 -219 l -7 -121 q 174 -17 85 -68 q 351 88 264 35 l 351 796 q 426 839 389 818 q 501 879 464 860 l 501 0 z "},"K":{"ha":842,"x_min":-15,"x_max":650,"o":"m -15 879 q 63 833 25 857 q 135 788 100 810 q 136 719 136 751 q 136 652 136 686 q 137 582 136 618 q 139 504 138 546 q 138 285 139 397 q 139 50 136 172 l 139 25 q 138 13 139 22 q 135 0 138 3 q 122 -12 135 -7 q 101 -25 108 -18 q 43 -56 69 -40 q -15 -87 17 -72 q -15 166 -15 39 q -14 416 -14 293 q -14 655 -14 539 q -15 875 -14 771 l -15 879 m 647 879 q 649 794 650 839 q 647 708 647 749 q 470 604 560 656 q 289 500 381 553 l 289 138 q 288 110 289 125 q 289 88 286 94 q 297 80 290 85 q 310 71 303 75 q 325 63 318 67 q 335 58 332 60 q 493 -31 414 14 q 647 -121 572 -76 l 647 -296 q 393 -149 518 -224 q 139 0 268 -75 l 139 583 q 201 622 171 606 q 264 658 232 639 q 456 771 361 715 q 647 879 550 826 z "},"L":{"ha":317,"x_min":0,"x_max":150,"o":"m 0 1744 q 75 1702 38 1722 q 150 1657 113 1682 l 150 69 l 0 -18 l 0 1640 l 0 1744 z "},"M":{"ha":1836,"x_min":0,"x_max":1738,"o":"m 508 861 q 690 758 600 811 q 867 653 779 706 q 1048 756 958 703 q 1225 861 1138 808 q 1481 713 1354 786 q 1738 565 1608 640 l 1738 236 l 1738 -22 l 1588 65 l 1588 290 l 1588 478 q 1498 531 1543 506 q 1408 582 1453 557 q 1317 634 1361 607 q 1229 686 1274 661 q 1048 583 1138 633 q 867 482 958 532 q 690 583 779 532 q 513 686 600 633 q 331 582 421 633 q 154 478 242 531 l 154 65 q 77 22 117 43 q 0 -18 38 1 l 0 857 q 78 816 40 838 q 154 769 117 794 l 154 653 q 333 756 246 703 q 508 861 421 808 z "},"N":{"ha":1140,"x_min":0,"x_max":1021,"o":"m 508 865 q 766 717 640 790 q 1021 569 892 644 l 1021 -18 l 871 69 l 871 482 q 825 509 849 497 q 779 536 801 521 q 646 613 713 574 q 513 690 579 653 q 331 588 421 640 q 150 482 242 535 l 150 124 q 151 95 150 111 q 150 69 153 79 q 135 59 150 67 q 113 49 119 51 q 56 13 85 29 q 0 -18 28 -3 l 0 432 l 0 861 q 75 821 38 842 q 150 778 113 800 l 150 657 q 333 760 244 707 q 508 865 421 813 z "},"O":{"ha":1140,"x_min":0,"x_max":1021,"o":"m 508 861 q 766 715 640 789 q 1021 565 892 640 q 1019 283 1018 424 q 1021 -1 1021 143 l 1021 -18 q 1008 -31 1018 -25 q 988 -39 997 -36 q 751 -176 871 -108 q 513 -314 632 -244 q 256 -167 383 -242 q 0 -18 129 -93 q 1 267 3 133 q 0 532 0 400 l 0 565 q 15 576 3 568 q 33 586 26 583 q 144 649 90 618 q 254 711 197 679 q 383 788 321 751 q 508 861 446 824 m 150 478 l 150 65 q 331 -39 242 13 q 508 -143 421 -90 q 668 -51 590 -96 q 825 40 746 -7 q 835 45 828 42 q 849 53 842 49 q 863 62 857 57 q 871 69 869 67 q 872 92 874 76 q 871 119 871 107 l 871 478 q 692 583 783 531 q 513 686 600 636 q 331 583 421 636 q 150 478 242 531 m 667 361 q 665 274 667 317 q 667 186 664 231 q 590 139 629 161 q 513 94 550 117 q 434 138 472 117 q 358 182 396 160 q 356 273 356 232 q 358 361 356 314 q 434 407 393 383 q 513 453 475 431 q 590 408 550 431 q 667 361 629 386 m 508 449 q 437 405 474 426 q 363 361 400 383 q 436 317 397 339 q 513 274 475 296 q 585 317 547 296 q 658 361 624 339 q 585 405 621 383 q 508 449 549 426 m 358 186 q 426 147 393 167 q 492 111 460 126 q 502 103 499 108 q 508 99 506 99 l 508 269 q 435 315 474 294 q 358 361 396 336 l 358 186 m 513 269 l 513 99 q 589 142 550 121 q 663 186 628 164 q 664 274 663 231 q 663 361 665 317 q 588 315 625 336 q 513 269 550 294 z "},"P":{"ha":667,"x_min":-6,"x_max":506,"o":"m 501 588 q 426 546 464 565 q 351 504 389 526 q 251 563 301 532 q 147 621 200 593 l 147 -750 l 147 -796 q 131 -806 144 -799 q 110 -817 117 -814 q 52 -850 82 -832 q -3 -883 22 -868 q -3 -519 -3 -690 q -4 -188 -4 -349 q -4 130 -4 -28 q -3 454 -4 288 l -3 879 q -6 881 -6 879 q -3 883 -6 883 q 185 773 92 826 q 376 663 279 719 q 439 626 408 643 q 501 588 469 610 m 506 0 q 326 -102 414 -50 q 147 -204 239 -154 l 147 -75 l 147 -33 q 160 -23 150 -26 q 172 -17 169 -19 q 265 35 219 8 q 351 88 311 63 l 351 500 q 426 545 389 525 q 501 588 464 565 q 503 294 504 436 q 506 0 503 151 z "},"Q":{"ha":1140,"x_min":0,"x_max":1021,"o":"m 508 883 q 766 735 640 808 q 1021 588 892 663 l 1021 0 q 1017 -4 1021 -4 l 1013 -4 q 838 -106 925 -54 q 667 -204 751 -157 l 667 -33 q 767 27 717 -1 q 871 88 818 56 l 871 475 l 871 500 q 851 515 868 507 q 825 525 835 522 q 667 618 746 572 q 513 708 588 664 q 331 604 421 656 q 150 500 242 553 l 150 113 l 150 88 q 158 81 151 85 q 172 73 164 76 q 186 67 179 69 q 196 63 193 64 q 352 -31 275 15 q 508 -121 429 -76 l 508 -292 q 383 -220 446 -257 q 254 -146 321 -183 q 127 -74 192 -111 q 0 0 63 -37 l 0 588 l 125 663 q 318 771 222 715 q 508 883 414 826 m 513 -296 l 513 113 q 663 200 588 163 l 663 -383 l 513 -296 m 667 383 l 667 204 q 588 160 626 182 q 513 117 550 139 q 433 160 472 139 q 354 204 394 182 l 354 383 q 435 429 394 406 q 513 475 475 453 q 590 429 550 453 q 667 383 629 406 m 513 471 l 363 383 l 513 296 q 588 341 550 321 q 663 383 625 361 q 586 427 622 406 q 513 471 550 449 m 358 208 l 508 121 l 508 292 q 433 337 471 317 q 358 379 396 357 l 358 208 m 625 188 q 647 196 635 190 q 663 208 660 201 q 664 229 665 215 q 663 250 663 243 l 663 379 q 586 335 625 357 q 513 292 547 314 l 513 121 q 569 152 540 136 q 625 188 597 168 m 513 121 l 513 292 q 586 335 547 314 q 663 379 625 357 l 663 250 q 664 229 663 243 q 663 208 665 215 q 647 196 660 201 q 625 188 635 190 q 569 152 597 168 q 513 121 540 136 z "},"R":{"ha":567,"x_min":0,"x_max":508,"o":"m 150 1069 l 150 657 q 174 667 163 660 q 196 682 186 675 q 354 772 275 726 q 508 861 433 817 l 508 690 q 331 584 421 633 q 150 482 242 535 l 150 69 q 76 26 115 47 q 0 -18 38 4 l 0 1153 l 0 1157 q 76 1113 38 1135 q 150 1069 115 1092 z "},"S":{"ha":1114,"x_min":-4,"x_max":1013,"o":"m 508 865 q 698 757 603 813 q 888 644 793 701 q 952 608 919 625 q 1013 569 985 592 q 938 529 975 550 q 867 486 901 508 q 685 588 775 536 q 508 690 596 640 q 328 588 417 640 q 146 486 240 536 q 173 468 158 476 q 200 453 188 460 q 390 342 294 396 q 579 232 485 289 q 742 140 661 185 q 908 44 824 94 q 960 13 933 29 q 1013 -18 988 -3 q 760 -164 886 -90 q 508 -310 635 -237 q 254 -164 379 -237 q 0 -18 129 -90 q 74 27 35 7 q 150 69 113 47 q 327 -35 238 17 q 508 -139 417 -86 q 610 -78 558 -107 q 713 -18 663 -50 q 669 9 690 -3 q 625 36 647 21 q 310 216 468 128 q -4 399 153 304 q -3 486 -4 443 q -4 569 -1 529 q 252 719 125 644 q 508 865 379 793 z "},"T":{"ha":1103,"x_min":0,"x_max":1013,"o":"m 508 1435 q 513 1439 508 1439 q 584 1394 547 1414 q 658 1351 621 1374 q 660 1111 661 1229 q 658 876 658 993 l 658 385 l 658 -244 q 583 -286 621 -264 q 508 -328 546 -308 l 508 -61 l 508 414 l 508 1435 m 150 468 q 74 512 113 490 q 0 556 35 533 q 251 701 126 628 q 504 847 375 775 q 506 760 507 803 q 504 676 504 717 q 460 648 482 661 q 417 622 439 635 q 283 547 350 585 q 150 468 217 508 m 663 760 q 838 658 750 710 q 1013 556 925 606 q 940 512 978 533 q 867 468 901 490 q 763 526 814 496 q 663 585 713 557 l 663 760 z "},"U":{"ha":1140,"x_min":0,"x_max":1021,"o":"m 150 496 l 150 138 q 149 111 150 125 q 150 88 147 97 q 158 80 151 85 q 172 71 164 75 q 186 63 179 67 q 196 58 193 60 q 354 -31 275 14 q 513 -121 433 -76 q 692 -17 604 -68 q 871 88 779 35 l 871 446 q 869 474 871 458 q 871 496 868 489 q 886 508 874 503 q 908 521 899 514 l 1021 583 l 1021 38 l 1021 0 q 1008 -8 1018 -3 q 992 -21 999 -14 q 767 -149 875 -87 q 542 -279 658 -210 q 525 -289 535 -282 q 513 -296 515 -296 q 496 -289 506 -296 q 479 -279 486 -282 q 240 -138 360 -207 q 0 0 119 -69 l 0 583 q 76 542 38 564 q 150 496 115 521 z "},"V":{"ha":1154,"x_min":0,"x_max":1021,"o":"m 1021 569 l 1021 -14 q 958 -53 989 -36 q 892 -89 926 -69 q 703 -201 797 -146 q 513 -310 610 -257 q 256 -165 383 -237 q 0 -18 129 -93 q 2 242 0 111 q 4 486 4 374 q 2 502 4 493 q 0 524 0 511 l 0 569 q 17 582 3 576 q 38 590 31 588 q 94 626 65 610 q 154 657 122 642 q 229 615 192 635 q 304 569 267 594 q 226 526 264 547 q 150 482 188 504 l 150 124 q 149 96 150 111 q 150 74 147 81 q 158 66 151 71 q 172 57 164 61 q 186 49 179 53 q 196 44 193 46 q 354 -47 275 -3 q 508 -139 433 -92 q 692 -35 600 -86 q 871 69 783 17 l 871 482 q 796 527 833 507 q 721 569 758 547 q 794 616 756 594 q 871 657 833 638 l 1021 569 z "},"W":{"ha":1865,"x_min":0,"x_max":1738,"o":"m 150 478 l 150 69 q 331 -36 242 17 q 513 -139 421 -89 q 690 -37 600 -89 q 871 65 779 15 q 1048 -37 958 15 q 1225 -139 1138 -89 q 1406 -37 1317 -89 q 1588 65 1496 15 l 1588 428 q 1586 456 1588 440 q 1588 478 1585 471 q 1601 490 1588 485 q 1625 503 1615 496 q 1679 535 1653 518 q 1738 565 1706 553 l 1738 -18 q 1482 -167 1608 -93 q 1229 -314 1356 -242 q 1048 -212 1138 -264 q 871 -110 958 -160 q 692 -212 779 -160 q 513 -314 604 -264 q 256 -167 383 -242 q 0 -18 129 -93 l 0 565 q 76 524 38 546 q 150 478 115 503 z "},"X":{"ha":842,"x_min":0,"x_max":763,"o":"m 0 -139 q 102 36 50 -51 q 204 215 154 124 l 292 65 q 190 -114 242 -26 q 88 -289 138 -201 q 42 -215 63 -254 q 0 -139 22 -176 m 0 578 q 42 653 19 615 q 83 728 64 690 q 188 551 136 640 q 292 374 239 461 l 204 224 q 101 399 151 311 q 0 578 50 486 m 292 369 l 379 219 l 292 69 q 249 144 269 107 q 204 219 229 182 l 292 369 m 558 215 q 662 38 611 128 q 763 -139 713 -51 q 721 -214 743 -176 q 679 -289 699 -251 q 574 -110 626 -201 q 471 65 521 -19 l 558 215 m 675 728 q 720 653 700 690 q 763 578 740 615 q 660 399 713 486 q 558 224 608 311 q 513 297 536 258 q 471 374 490 336 q 573 549 521 461 q 675 728 625 636 m 292 374 l 471 374 q 515 297 493 336 q 558 219 536 257 q 515 141 536 179 q 471 65 493 103 l 292 65 q 247 141 269 100 q 204 219 224 182 q 248 297 226 257 q 292 374 269 336 m 204 219 q 248 143 226 182 q 292 69 269 104 l 379 219 q 337 293 357 257 q 292 369 317 329 l 204 219 m 467 65 q 506 133 486 100 q 546 199 526 167 q 551 209 549 206 q 554 215 554 213 l 383 215 q 340 142 361 181 q 296 65 318 103 l 467 65 m 383 219 l 554 219 q 512 296 535 254 q 467 369 489 338 l 296 369 l 383 219 z "},"Y":{"ha":1003,"x_min":-158,"x_max":858,"o":"m -12 811 q 167 709 79 761 q 346 607 254 657 l 196 519 q 63 598 129 560 q -71 674 -4 636 q -115 699 -93 686 q -158 728 -136 713 q -84 768 -121 747 q -12 811 -47 789 m 858 724 q 679 623 767 674 q 504 519 592 572 q 428 563 464 542 q 354 607 392 585 q 482 684 414 644 q 617 761 550 724 q 660 785 639 774 q 704 807 682 797 q 722 803 711 810 q 746 790 733 797 q 801 757 771 775 q 858 724 831 739 m 346 436 q 273 474 308 451 q 200 519 238 497 q 272 563 235 542 q 346 603 308 583 q 347 522 349 563 q 346 436 346 481 m 350 603 q 424 561 388 583 q 500 519 460 539 l 350 432 l 350 603 m 500 344 q 426 301 465 322 q 350 257 388 279 l 350 428 q 424 473 385 453 q 500 515 463 493 l 500 344 m 500 -101 q 425 -143 463 -121 q 350 -185 388 -165 l 350 182 l 350 253 l 500 340 l 500 336 l 500 -101 z "},"Z":{"ha":1140,"x_min":0,"x_max":1017,"o":"m 504 865 q 760 719 633 793 q 1017 569 888 644 q 1015 486 1014 529 q 1017 399 1017 443 q 702 216 860 304 q 388 36 544 128 q 344 9 365 21 q 300 -18 322 -3 q 402 -78 350 -50 q 504 -139 454 -107 q 685 -35 596 -86 q 863 69 775 17 q 939 27 900 47 q 1013 -18 978 7 q 758 -164 883 -90 q 504 -310 633 -237 q 252 -164 378 -237 q 0 -18 126 -90 q 52 13 25 -3 q 104 44 79 29 q 270 140 189 94 q 433 232 351 185 q 623 342 528 289 q 813 453 718 396 q 840 468 825 460 q 867 486 854 476 q 684 588 772 536 q 504 690 596 640 q 327 588 417 640 q 146 486 238 536 q 74 529 111 508 q 0 569 38 550 q 60 608 28 592 q 125 644 93 625 q 315 757 219 701 q 504 865 410 813 z "},"À":{"ha":1110,"x_min":0,"x_max":1021,"o":"m 508 883 q 765 735 638 808 q 1021 588 892 663 q 1021 4 1014 299 q 1010 7 1014 4 q 1000 13 1007 10 q 935 50 968 32 q 867 88 901 68 l 867 450 q 868 475 867 460 q 867 500 869 490 q 861 507 867 503 q 849 515 856 511 q 835 521 842 518 q 825 525 828 524 q 667 617 746 572 q 508 708 588 661 q 331 606 421 658 q 150 500 242 553 l 150 88 q 316 -10 232 38 q 488 -108 400 -58 q 498 -116 490 -111 q 508 -121 506 -121 q 519 -116 511 -121 q 533 -108 526 -111 q 624 -55 581 -81 q 713 -4 668 -29 q 789 -47 750 -24 q 863 -92 828 -69 q 685 -194 775 -142 q 508 -296 596 -246 q 253 -148 379 -221 q 0 0 126 -75 l 0 588 q 253 734 126 660 q 508 883 379 808 m 1021 0 q 1021 -175 1014 -90 q 867 -90 942 -135 q 717 0 792 -44 q 792 42 754 22 q 867 83 829 61 q 942 42 904 64 q 1021 0 981 19 m 43 1125 q 233 1017 138 1072 q 418 906 328 963 q 365 875 390 892 q 311 843 339 858 q 175 924 240 886 q 43 1000 110 963 l 43 1125 z "},"Á":{"ha":1110,"x_min":0,"x_max":1021,"o":"m 508 883 q 765 735 638 808 q 1021 588 892 663 q 1021 4 1014 299 q 1010 7 1014 4 q 1000 13 1007 10 q 935 50 968 32 q 867 88 901 68 l 867 450 q 868 475 867 460 q 867 500 869 490 q 861 507 867 503 q 849 515 856 511 q 835 521 842 518 q 825 525 828 524 q 667 617 746 572 q 508 708 588 661 q 331 606 421 658 q 150 500 242 553 l 150 88 q 316 -10 232 38 q 488 -108 400 -58 q 498 -116 490 -111 q 508 -121 506 -121 q 519 -116 511 -121 q 533 -108 526 -111 q 624 -55 581 -81 q 713 -4 668 -29 q 789 -47 750 -24 q 863 -92 828 -69 q 685 -194 775 -142 q 508 -296 596 -246 q 253 -148 379 -221 q 0 0 126 -75 l 0 588 q 253 734 126 660 q 508 883 379 808 m 1021 0 q 1021 -175 1014 -90 q 867 -90 942 -135 q 717 0 792 -44 q 792 42 754 22 q 867 83 829 61 q 942 42 904 64 q 1021 0 981 19 m 938 1000 q 806 924 871 963 q 669 843 740 886 q 616 875 642 858 q 563 906 590 892 q 748 1017 653 963 q 938 1125 843 1072 l 938 1000 z "},"Â":{"ha":1110,"x_min":0,"x_max":1021,"o":"m 508 1056 q 638 985 575 1021 q 763 914 700 949 q 725 891 743 901 q 692 868 707 881 q 601 920 644 893 q 513 972 557 947 q 422 922 465 947 q 333 868 378 896 q 296 890 314 881 q 258 910 278 900 q 383 984 321 947 q 508 1056 446 1021 m 508 883 q 765 735 638 808 q 1021 588 892 663 q 1021 4 1014 299 q 1010 7 1014 4 q 1000 13 1007 10 q 935 50 968 32 q 867 88 901 68 l 867 450 q 868 475 867 460 q 867 500 869 490 q 861 507 867 503 q 849 515 856 511 q 835 521 842 518 q 825 525 828 524 q 667 617 746 572 q 508 708 588 661 q 331 606 421 658 q 150 500 242 553 l 150 88 q 316 -10 232 38 q 488 -108 400 -58 q 498 -116 490 -111 q 508 -121 506 -121 q 519 -116 511 -121 q 533 -108 526 -111 q 624 -55 581 -81 q 713 -4 668 -29 q 789 -47 750 -24 q 863 -92 828 -69 q 685 -194 775 -142 q 508 -296 596 -246 q 253 -148 379 -221 q 0 0 126 -75 l 0 588 q 253 734 126 660 q 508 883 379 808 m 1021 0 q 1021 -175 1014 -90 q 867 -90 942 -135 q 717 0 792 -44 q 792 42 754 22 q 867 83 829 61 q 942 42 904 64 q 1021 0 981 19 z "},"Ã":{"ha":1110,"x_min":0,"x_max":1021,"o":"m 508 883 q 765 735 638 808 q 1021 588 892 663 q 1021 4 1014 299 q 1010 7 1014 4 q 1000 13 1007 10 q 935 50 968 32 q 867 88 901 68 l 867 450 q 868 475 867 460 q 867 500 869 490 q 861 507 867 503 q 849 515 856 511 q 835 521 842 518 q 825 525 828 524 q 667 617 746 572 q 508 708 588 661 q 331 606 421 658 q 150 500 242 553 l 150 88 q 316 -10 232 38 q 488 -108 400 -58 q 498 -116 490 -111 q 508 -121 506 -121 q 519 -116 511 -121 q 533 -108 526 -111 q 624 -55 581 -81 q 713 -4 668 -29 q 789 -47 750 -24 q 863 -92 828 -69 q 685 -194 775 -142 q 508 -296 596 -246 q 253 -148 379 -221 q 0 0 126 -75 l 0 588 q 253 734 126 660 q 508 883 379 808 m 1021 0 q 1021 -175 1014 -90 q 867 -90 942 -135 q 717 0 792 -44 q 792 42 754 22 q 867 83 829 61 q 942 42 904 64 q 1021 0 981 19 m 356 978 q 377 1019 367 997 q 401 1061 388 1040 l 625 1061 q 648 1020 636 1043 q 671 978 660 997 l 356 978 z "},"Ç":{"ha":1140,"x_min":0,"x_max":1017,"o":"m 508 883 q 764 738 638 811 q 1017 592 890 664 q 943 547 979 567 q 867 504 907 526 q 690 606 779 554 q 513 708 600 658 q 331 606 421 658 q 150 500 242 553 l 150 88 q 196 63 172 75 q 242 38 219 50 q 375 -42 308 0 q 508 -121 442 -83 q 690 -17 600 -68 q 867 88 779 35 l 1017 0 q 765 -148 890 -75 q 513 -296 639 -221 q 255 -148 381 -221 q 0 0 129 -75 l 0 313 l 0 588 q 254 735 126 663 q 508 883 382 808 m 400 -283 q 456 -315 425 -303 q 511 -347 486 -328 l 511 -667 q 469 -688 492 -675 q 428 -717 447 -701 q 412 -724 417 -717 q 400 -731 407 -731 q 398 -504 400 -618 q 400 -283 396 -390 z "},"È":{"ha":1140,"x_min":0,"x_max":1017,"o":"m 1017 592 q 764 444 890 517 q 508 296 638 371 q 437 340 474 318 q 363 383 400 361 q 540 488 450 436 q 717 592 629 539 q 615 652 667 624 q 513 708 563 681 q 331 606 421 658 q 150 500 242 553 l 150 88 q 331 -17 242 35 q 508 -121 421 -68 q 688 -17 600 -68 q 867 88 775 35 l 1017 0 q 764 -147 890 -75 q 508 -292 638 -219 q 256 -146 382 -219 q 0 0 129 -72 l 0 588 q 219 715 107 650 q 442 842 332 779 q 473 862 457 851 q 504 879 489 872 q 524 876 514 882 q 550 863 535 869 q 785 726 667 793 q 1017 592 904 658 m 56 1119 q 245 1012 150 1067 q 431 900 340 957 q 377 869 403 886 q 324 838 351 853 q 188 919 253 881 q 56 994 122 957 l 56 1119 z "},"É":{"ha":1140,"x_min":0,"x_max":1017,"o":"m 1017 592 q 764 444 890 517 q 508 296 638 371 q 437 340 474 318 q 363 383 400 361 q 540 488 450 436 q 717 592 629 539 q 615 652 667 624 q 513 708 563 681 q 331 606 421 658 q 150 500 242 553 l 150 88 q 331 -17 242 35 q 508 -121 421 -68 q 688 -17 600 -68 q 867 88 775 35 l 1017 0 q 764 -147 890 -75 q 508 -292 638 -219 q 256 -146 382 -219 q 0 0 129 -72 l 0 588 q 219 715 107 650 q 442 842 332 779 q 473 862 457 851 q 504 879 489 872 q 524 876 514 882 q 550 863 535 869 q 785 726 667 793 q 1017 592 904 658 m 933 1001 q 801 926 867 964 q 665 844 736 888 q 612 876 638 860 q 558 907 586 893 q 744 1019 649 964 q 933 1126 839 1074 l 933 1001 z "},"Ê":{"ha":1140,"x_min":0,"x_max":1017,"o":"m 508 1089 q 638 1018 575 1054 q 763 947 700 982 q 725 924 743 935 q 692 901 707 914 q 601 953 644 926 q 513 1006 557 981 q 422 955 465 981 q 333 901 378 929 q 296 924 314 914 q 258 943 278 933 q 383 1017 321 981 q 508 1089 446 1054 m 1017 592 q 764 444 890 517 q 508 296 638 371 q 437 340 474 318 q 363 383 400 361 q 540 488 450 436 q 717 592 629 539 q 615 652 667 624 q 513 708 563 681 q 331 606 421 658 q 150 500 242 553 l 150 88 q 331 -17 242 35 q 508 -121 421 -68 q 688 -17 600 -68 q 867 88 775 35 l 1017 0 q 764 -147 890 -75 q 508 -292 638 -219 q 256 -146 382 -219 q 0 0 129 -72 l 0 588 q 219 715 107 650 q 442 842 332 779 q 473 862 457 851 q 504 879 489 872 q 524 876 514 882 q 550 863 535 869 q 785 726 667 793 q 1017 592 904 658 z "},"Ì":{"ha":281,"x_min":-54,"x_max":204,"o":"m 7 585 q 78 541 43 563 q 149 497 113 519 q 147 376 147 426 q 146 281 146 325 q 147 191 146 236 q 149 86 147 146 q 77 43 113 65 q 0 0 42 21 q 1 55 0 22 q 2 123 1 88 q 3 192 3 158 q 0 249 3 225 q 3 433 0 346 q 0 582 6 521 q 6 583 4 582 q 7 585 7 583 m -54 791 q 76 717 11 755 q 204 640 142 679 q 167 619 185 630 q 130 597 150 607 q 37 653 82 626 q -54 705 -8 679 l -54 791 z "},"Í":{"ha":317,"x_min":0,"x_max":274,"o":"m 7 585 q 78 541 43 563 q 149 497 113 519 q 147 376 147 426 q 146 281 146 325 q 147 191 146 236 q 149 86 147 146 q 77 43 113 65 q 0 0 42 21 q 1 55 0 22 q 2 123 1 88 q 3 192 3 158 q 0 249 3 225 q 3 433 0 346 q 0 582 6 521 q 6 583 4 582 q 7 585 7 583 m 274 791 q 143 717 209 755 q 15 640 77 679 q 52 619 34 630 q 89 597 70 607 q 183 653 138 626 q 274 705 228 679 l 274 791 z "},"Î":{"ha":610,"x_min":1,"x_max":506,"o":"m 251 778 q 381 707 318 743 q 506 636 443 671 q 468 613 486 624 q 435 590 450 603 q 344 642 388 615 q 256 694 300 669 q 165 644 208 669 q 76 590 121 618 q 39 613 57 603 q 1 632 21 622 q 126 706 64 669 q 251 778 189 743 m 269 594 q 268 593 269 593 q 263 592 267 592 q 265 443 268 531 q 263 258 263 356 q 265 201 265 235 q 265 133 265 168 q 263 65 264 97 q 263 10 263 32 q 340 53 304 31 q 411 96 375 75 q 409 201 410 156 q 408 290 408 246 q 409 385 408 335 q 411 507 410 436 q 340 551 375 529 q 269 594 306 572 z "},"Ñ":{"ha":1140,"x_min":0,"x_max":1021,"o":"m 508 865 q 766 717 640 790 q 1021 569 892 644 l 1021 -18 l 871 69 l 871 482 q 825 509 849 497 q 779 536 801 521 q 646 613 713 574 q 513 690 579 653 q 331 588 421 640 q 150 482 242 535 l 150 124 q 151 95 150 111 q 150 69 153 79 q 135 59 150 67 q 113 49 119 51 q 56 13 85 29 q 0 -18 28 -3 l 0 432 l 0 861 q 75 821 38 842 q 150 778 113 800 l 150 657 q 333 760 244 707 q 508 865 421 813 m 357 990 q 378 1031 368 1010 q 403 1074 389 1053 l 626 1074 q 649 1033 638 1056 q 672 990 661 1010 l 357 990 z "},"Ò":{"ha":1140,"x_min":0,"x_max":1021,"o":"m 508 861 q 766 715 640 789 q 1021 565 892 640 q 1019 283 1018 424 q 1021 -1 1021 143 l 1021 -18 q 1008 -31 1018 -25 q 988 -39 997 -36 q 751 -176 871 -108 q 513 -314 632 -244 q 256 -167 383 -242 q 0 -18 129 -93 q 1 267 3 133 q 0 532 0 400 l 0 565 q 15 576 3 568 q 33 586 26 583 q 144 649 90 618 q 254 711 197 679 q 383 788 321 751 q 508 861 446 824 m 150 478 l 150 65 q 331 -39 242 13 q 508 -143 421 -90 q 668 -51 590 -96 q 825 40 746 -7 q 835 45 828 42 q 849 53 842 49 q 863 62 857 57 q 871 69 869 67 q 872 92 874 76 q 871 119 871 107 l 871 478 q 692 583 783 531 q 513 686 600 636 q 331 583 421 636 q 150 478 242 531 m 667 361 q 665 274 667 317 q 667 186 664 231 q 590 139 629 161 q 513 94 550 117 q 434 138 472 117 q 358 182 396 160 q 356 273 356 232 q 358 361 356 314 q 434 407 393 383 q 513 453 475 431 q 590 408 550 431 q 667 361 629 386 m 508 449 q 437 405 474 426 q 363 361 400 383 q 436 317 397 339 q 513 274 475 296 q 585 317 547 296 q 658 361 624 339 q 585 405 621 383 q 508 449 549 426 m 358 186 q 426 147 393 167 q 492 111 460 126 q 502 103 499 108 q 508 99 506 99 l 508 269 q 435 315 474 294 q 358 361 396 336 l 358 186 m 513 269 l 513 99 q 589 142 550 121 q 663 186 628 164 q 664 274 663 231 q 663 361 665 317 q 588 315 625 336 q 513 269 550 294 m 53 1107 q 242 999 147 1054 q 428 888 338 944 q 374 857 400 874 q 321 825 349 840 q 185 906 250 868 q 53 982 119 944 l 53 1107 z "},"Ó":{"ha":1140,"x_min":0,"x_max":1021,"o":"m 508 861 q 766 715 640 789 q 1021 565 892 640 q 1019 283 1018 424 q 1021 -1 1021 143 l 1021 -18 q 1008 -31 1018 -25 q 988 -39 997 -36 q 751 -176 871 -108 q 513 -314 632 -244 q 256 -167 383 -242 q 0 -18 129 -93 q 1 267 3 133 q 0 532 0 400 l 0 565 q 15 576 3 568 q 33 586 26 583 q 144 649 90 618 q 254 711 197 679 q 383 788 321 751 q 508 861 446 824 m 150 478 l 150 65 q 331 -39 242 13 q 508 -143 421 -90 q 668 -51 590 -96 q 825 40 746 -7 q 835 45 828 42 q 849 53 842 49 q 863 62 857 57 q 871 69 869 67 q 872 92 874 76 q 871 119 871 107 l 871 478 q 692 583 783 531 q 513 686 600 636 q 331 583 421 636 q 150 478 242 531 m 667 361 q 665 274 667 317 q 667 186 664 231 q 590 139 629 161 q 513 94 550 117 q 434 138 472 117 q 358 182 396 160 q 356 273 356 232 q 358 361 356 314 q 434 407 393 383 q 513 453 475 431 q 590 408 550 431 q 667 361 629 386 m 508 449 q 437 405 474 426 q 363 361 400 383 q 436 317 397 339 q 513 274 475 296 q 585 317 547 296 q 658 361 624 339 q 585 405 621 383 q 508 449 549 426 m 358 186 q 426 147 393 167 q 492 111 460 126 q 502 103 499 108 q 508 99 506 99 l 508 269 q 435 315 474 294 q 358 361 396 336 l 358 186 m 513 269 l 513 99 q 589 142 550 121 q 663 186 628 164 q 664 274 663 231 q 663 361 665 317 q 588 315 625 336 q 513 269 550 294 m 933 994 q 801 919 867 957 q 665 838 736 881 q 612 869 638 853 q 558 900 586 886 q 744 1012 649 957 q 933 1119 839 1067 l 933 994 z "},"Ô":{"ha":1151,"x_min":0,"x_max":1021,"o":"m 508 1083 q 638 1013 575 1049 q 763 942 700 976 q 725 919 743 929 q 692 896 707 908 q 601 948 644 921 q 513 1000 557 975 q 422 949 465 975 q 333 896 378 924 q 296 918 314 908 q 258 938 278 928 q 383 1012 321 975 q 508 1083 446 1049 m 508 861 q 766 715 640 789 q 1021 565 892 640 q 1019 283 1018 424 q 1021 -1 1021 143 l 1021 -18 q 1008 -31 1018 -25 q 988 -39 997 -36 q 751 -176 871 -108 q 513 -314 632 -244 q 256 -167 383 -242 q 0 -18 129 -93 q 1 267 3 133 q 0 532 0 400 l 0 565 q 15 576 3 568 q 33 586 26 583 q 144 649 90 618 q 254 711 197 679 q 383 788 321 751 q 508 861 446 824 m 150 478 l 150 65 q 331 -39 242 13 q 508 -143 421 -90 q 668 -51 590 -96 q 825 40 746 -7 q 835 45 828 42 q 849 53 842 49 q 863 62 857 57 q 871 69 869 67 q 872 92 874 76 q 871 119 871 107 l 871 478 q 692 583 783 531 q 513 686 600 636 q 331 583 421 636 q 150 478 242 531 m 667 361 q 665 274 667 317 q 667 186 664 231 q 590 139 629 161 q 513 94 550 117 q 434 138 472 117 q 358 182 396 160 q 356 273 356 232 q 358 361 356 314 q 434 407 393 383 q 513 453 475 431 q 590 408 550 431 q 667 361 629 386 m 508 449 q 437 405 474 426 q 363 361 400 383 q 436 317 397 339 q 513 274 475 296 q 585 317 547 296 q 658 361 624 339 q 585 405 621 383 q 508 449 549 426 m 358 186 q 426 147 393 167 q 492 111 460 126 q 502 103 499 108 q 508 99 506 99 l 508 269 q 435 315 474 294 q 358 361 396 336 l 358 186 m 513 269 l 513 99 q 589 142 550 121 q 663 186 628 164 q 664 274 663 231 q 663 361 665 317 q 588 315 625 336 q 513 269 550 294 z "},"Ù":{"ha":1140,"x_min":0,"x_max":1021,"o":"m 150 496 l 150 138 q 149 111 150 125 q 150 88 147 97 q 158 80 151 85 q 172 71 164 75 q 186 63 179 67 q 196 58 193 60 q 354 -31 275 14 q 513 -121 433 -76 q 692 -17 604 -68 q 871 88 779 35 l 871 446 q 869 474 871 458 q 871 496 868 489 q 886 508 874 503 q 908 521 899 514 l 1021 583 l 1021 38 l 1021 0 q 1008 -8 1018 -3 q 992 -21 999 -14 q 767 -149 875 -87 q 542 -279 658 -210 q 525 -289 535 -282 q 513 -296 515 -296 q 496 -289 506 -296 q 479 -279 486 -282 q 240 -138 360 -207 q 0 0 119 -69 l 0 583 q 76 542 38 564 q 150 496 115 521 m 267 967 q 456 859 361 914 q 642 747 551 804 q 588 717 614 733 q 535 685 563 700 q 399 766 464 728 q 267 842 333 804 l 267 967 z "},"Ú":{"ha":1140,"x_min":0,"x_max":1021,"o":"m 150 496 l 150 138 q 149 111 150 125 q 150 88 147 97 q 158 80 151 85 q 172 71 164 75 q 186 63 179 67 q 196 58 193 60 q 354 -31 275 14 q 513 -121 433 -76 q 692 -17 604 -68 q 871 88 779 35 l 871 446 q 869 474 871 458 q 871 496 868 489 q 886 508 874 503 q 908 521 899 514 l 1021 583 l 1021 38 l 1021 0 q 1008 -8 1018 -3 q 992 -21 999 -14 q 767 -149 875 -87 q 542 -279 658 -210 q 525 -289 535 -282 q 513 -296 515 -296 q 496 -289 506 -296 q 479 -279 486 -282 q 240 -138 360 -207 q 0 0 119 -69 l 0 583 q 76 542 38 564 q 150 496 115 521 m 818 858 q 686 783 751 821 q 550 701 621 744 q 497 733 522 717 q 443 764 471 750 q 628 876 533 821 q 818 983 724 931 l 818 858 z "},"Û":{"ha":1140,"x_min":0,"x_max":1021,"o":"m 508 803 q 638 732 575 768 q 763 661 700 696 q 725 638 743 649 q 692 615 707 628 q 601 667 644 640 q 513 719 557 694 q 422 669 465 694 q 333 615 378 643 q 296 638 314 628 q 258 657 278 647 q 383 731 321 694 q 508 803 446 768 m 150 496 l 150 138 q 149 111 150 125 q 150 88 147 97 q 158 80 151 85 q 172 71 164 75 q 186 63 179 67 q 196 58 193 60 q 354 -31 275 14 q 513 -121 433 -76 q 692 -17 604 -68 q 871 88 779 35 l 871 446 q 869 474 871 458 q 871 496 868 489 q 886 508 874 503 q 908 521 899 514 l 1021 583 l 1021 38 l 1021 0 q 1008 -8 1018 -3 q 992 -21 999 -14 q 767 -149 875 -87 q 542 -279 658 -210 q 525 -289 535 -282 q 513 -296 515 -296 q 496 -289 506 -296 q 479 -279 486 -282 q 240 -138 360 -207 q 0 0 119 -69 l 0 583 q 76 542 38 564 q 150 496 115 521 z "}}}
